<?xml version="1.0" encoding="UTF-8" standalone="no"?>
<svg
   xmlns:dc="http://purl.org/dc/elements/1.1/"
   xmlns:cc="http://creativecommons.org/ns#"
   xmlns:rdf="http://www.w3.org/1999/02/22-rdf-syntax-ns#"
   xmlns:svg="http://www.w3.org/2000/svg"
   xmlns="http://www.w3.org/2000/svg"
   xml:space="preserve"
   viewBox="0 0 511.99999 511.99999"
   height="512"
   width="512"
   y="0px"
   x="0px"
   id="Layer_1"
   version="1.1"><metadata
   id="metadata13"><rdf:RDF><cc:Work
       rdf:about=""><dc:format>image/svg+xml</dc:format><dc:type
         rdf:resource="http://purl.org/dc/dcmitype/StillImage" /><dc:title>Bugman logo</dc:title></cc:Work></rdf:RDF></metadata><defs
   id="defs11" />
<style
   id="style2"
   type="text/css">
	.st0{fill:#D8A619;}
</style>
<title
   id="title4">Bugman logo</title>
<path
   style="fill:#000000;fill-opacity:1;stroke-width:1.46565723"
   id="path6"
   d="m 11.192355,152.90571 c 4.103841,33.85669 19.200111,63.46297 40.598707,89.69823 22.131424,27.26123 49.392648,46.16821 83.102768,53.49649 l -31.21851,27.70092 h -0.29312 v 0.14657 L 82.862996,342.4152 70.404909,456.44334 c -2.05192,19.49324 14.656573,35.90861 34.149811,33.27042 L 223.1264,473.7381 358.40656,358.2443 c 0,0 35.90861,-31.51163 42.3575,-38.98648 15.24284,-18.17415 17.00163,-39.42618 13.63062,-60.82478 22.27799,0.58626 96.73337,4.25041 82.9562,-57.89346 -6.59546,-29.31314 -18.76042,-54.96215 -42.3575,-73.42943 l 32.83073,-12.75122 C 498.81653,110.10853 504.0929,97.797 499.84249,86.80457 495.59209,75.812141 483.28057,70.535774 472.28813,74.78618 v 0 l -100.39752,39.13306 c -2.19849,0.87939 -4.2504,2.05191 -6.00919,3.66413 -2.34506,1.46567 -4.54354,2.93132 -6.59546,4.54354 -16.26879,12.89779 -25.2093,30.19254 -30.48567,52.32397 -2.34506,-2.19848 -5.27636,-4.10384 -7.03515,-6.59545 -2.05193,-2.78475 -3.07789,-6.30233 -4.69011,-9.38022 C 288.49471,105.56498 245.11125,68.190723 191.76134,41.662326 168.89708,30.376765 144.8603,22.901913 119.2113,22.022518 106.02038,21.582821 96.347045,30.376765 95.907343,42.54172 c -0.439692,12.164955 8.500817,21.105465 21.691737,22.131426 7.76798,0.439697 15.38939,1.612222 23.01082,3.517577 41.77122,11.285561 76.06761,34.736077 105.96702,65.221757 13.04435,13.04435 24.03678,28.14062 32.39102,44.55598 l -22.27799,19.2001 c -3.07788,-4.98323 -6.15576,-10.55273 -9.67334,-15.68253 -3.51758,-5.5695 -7.47485,-10.84586 -11.87182,-15.82909 C 188.83002,114.21236 129.76403,90.029016 61.757531,86.364873 37.720752,84.75265 19.546602,98.090132 13.830538,120.075 c -2.931315,10.69929 -3.810709,21.83829 -2.638183,32.83071 z m 376.967055,21.8383 c 0,-15.68253 13.48404,-28.14061 29.45971,-26.38183 12.16495,1.31909 21.98486,11.139 23.30395,23.30395 1.75879,15.97566 -10.6993,29.45971 -26.23526,29.45971 -14.65658,0.14657 -26.5284,-11.72526 -26.5284,-26.38183 0,0 0,0 0,0 z m -223.36617,151.54896 35.02921,-31.07194 c 21.25203,0.8794 41.33153,9.96648 56.13467,25.35588 17.29476,17.58789 21.25203,36.05517 24.62304,48.36669 l -40.5987,34.58951 c -10.84587,-36.64143 -38.98649,-65.51488 -75.18822,-77.24014 z m 37.22769,107.28612 -44.40942,6.00919 c -4.2504,-13.33748 -14.65656,-33.71012 -38.54678,-38.10709 l 4.10384,-37.81396 c 2.19849,-0.14656 4.39697,-0.29313 6.59546,-0.29313 39.13305,0 71.23094,31.07194 72.2569,70.20499 z M 70.111778,129.16207 c 52.910232,5.86263 99.518132,25.06274 134.547342,66.68741 6.59546,7.76798 10.84586,17.58788 16.12223,26.38183 3.37101,5.42293 1.75879,10.40616 -1.61222,15.09627 -8.35425,11.72526 -20.95891,15.53596 -34.14982,17.73445 -6.30233,1.17253 -12.60465,1.31909 -19.05354,1.90536 -32.83073,-0.29314 -58.6263,-14.65658 -79.292065,-38.98649 -17.001624,-20.0795 -29.020014,-42.94376 -33.416986,-69.17902 -0.146565,-0.4397 -0.146565,-0.8794 -0.293131,-1.46566 -1.758789,-16.2688 1.172525,-19.93294 17.14819,-18.17415 z"
   class="st0" />
</svg>