<?xml version="1.0" encoding="UTF-8" standalone="no"?>
<svg
   xmlns:dc="http://purl.org/dc/elements/1.1/"
   xmlns:cc="http://creativecommons.org/ns#"
   xmlns:rdf="http://www.w3.org/1999/02/22-rdf-syntax-ns#"
   xmlns:svg="http://www.w3.org/2000/svg"
   xmlns="http://www.w3.org/2000/svg"
   id="svg8"
   version="1.1"
   viewBox="0 0 512 512"
   height="512mm"
   width="512mm">
  <defs
     id="defs2" />
  <metadata
     id="metadata5">
    <rdf:RDF>
      <cc:Work
         rdf:about="">
        <dc:format>image/svg+xml</dc:format>
        <dc:type
           rdf:resource="http://purl.org/dc/dcmitype/StillImage" />
        <dc:title></dc:title>
      </cc:Work>
    </rdf:RDF>
  </metadata>
  <g
     transform="translate(0,215)"
     id="layer1">
    <path
       id="path826"
       d="M 231.10475,287.33967 C 195.0402,282.0711 169.4747,274.38791 143.35584,260.96853 75.203377,225.95306 27.25867,161.5785 12.085894,84.71455 8.2135807,65.097745 8.6740197,13.287847 12.897284,-6.5852037 29.044084,-82.565838 75.10433,-143.93394 142.11064,-178.74189 c 19.90209,-10.3386 47.89062,-20.1327 70.01148,-24.49931 19.61681,-3.87231 71.42671,-3.41187 91.29976,0.81139 77.62149,16.4955 140.25452,64.55677 174.99814,134.284271 7.91484,15.884394 17.86183,45.710224 21.65786,64.9405612 3.31343,16.7855568 3.31343,71.1339718 0,87.9195278 -15.45098,78.2733 -64.71435,143.31903 -135.09567,178.3759 -16.22445,8.08136 -39.99825,16.21056 -59.94513,20.49754 -13.85176,2.97703 -62.37875,5.43952 -73.93233,3.75168 z M 343.45046,121.68072 c 10.88024,-14.55238 16.45086,-23.791549 16.48491,-27.34108 0.0593,-6.179064 -3.64998,-9.458103 -42.40972,-37.490865 L 292.04897,38.42292 v -70.768224 c 0,-68.103996 -0.15045,-70.918676 -3.99635,-74.764566 -3.61573,-3.61574 -6.66056,-3.99634 -31.97073,-3.99634 -25.31018,0 -28.35501,0.3806 -31.97074,3.99634 -3.87667,3.87667 -3.99634,6.66057 -3.99634,92.968462 v 88.972125 l 25.47668,18.771478 c 69.01093,50.847965 69.20352,50.976925 75.43096,50.508915 5.11214,-0.38419 8.41348,-3.68589 22.42801,-22.43039 z"
       style="fill:#000000;stroke-width:1.99817109" />
  </g>
</svg>
