<?xml version="1.0" encoding="UTF-8" standalone="no"?>
<svg
   xmlns:dc="http://purl.org/dc/elements/1.1/"
   xmlns:cc="http://creativecommons.org/ns#"
   xmlns:rdf="http://www.w3.org/1999/02/22-rdf-syntax-ns#"
   xmlns:svg="http://www.w3.org/2000/svg"
   xmlns="http://www.w3.org/2000/svg"
   xmlns:sodipodi="http://sodipodi.sourceforge.net/DTD/sodipodi-0.dtd"
   xmlns:inkscape="http://www.inkscape.org/namespaces/inkscape"
   xml:space="preserve"
   viewBox="0 0 512.00001 512.00001"
   height="512"
   width="512"
   y="0px"
   x="0px"
   id="Layer_1"
   version="1.1"
   sodipodi:docname="good-thnx-black.svg"
   inkscape:version="0.92.3 (2405546, 2018-03-11)"><sodipodi:namedview
   pagecolor="#ffffff"
   bordercolor="#666666"
   borderopacity="1"
   objecttolerance="10"
   gridtolerance="10"
   guidetolerance="10"
   inkscape:pageopacity="0"
   inkscape:pageshadow="2"
   inkscape:window-width="1546"
   inkscape:window-height="833"
   id="namedview7"
   showgrid="false"
   inkscape:zoom="0.4609375"
   inkscape:cx="326.50847"
   inkscape:cy="169.22034"
   inkscape:window-x="0"
   inkscape:window-y="0"
   inkscape:window-maximized="1"
   inkscape:current-layer="Layer_1" /><metadata
   id="metadata41"><rdf:RDF><cc:Work
       rdf:about=""><dc:format>image/svg+xml</dc:format><dc:type
         rdf:resource="http://purl.org/dc/dcmitype/StillImage" /><dc:title /></cc:Work></rdf:RDF></metadata><defs
   id="defs39" />

<path
   style="clip-rule:evenodd;fill:#000000;fill-opacity:1;fill-rule:evenodd;stroke:none;stroke-width:4.15148497;stroke-linejoin:round;stroke-miterlimit:1.41420996;stroke-opacity:1"
   d="M 256 18.136719 C 124.63455 18.136719 18.140625 124.63039 18.140625 256 C 18.140625 387.36543 124.63455 493.86328 256 493.86328 C 387.36545 493.86328 493.85937 387.36543 493.85938 256 C 493.85938 124.63039 387.36545 18.136719 256 18.136719 z M 81.865234 322.89258 A 377.49152 377.49152 0 0 0 256 365.79688 A 377.49152 377.49152 0 0 0 429.82422 323.23828 A 186.57628 186.57628 0 0 1 256 442.57617 A 186.57628 186.57628 0 0 1 81.865234 322.89258 z "
   id="path108" /></svg>