<?xml version="1.0" encoding="UTF-8" standalone="no"?>
<svg
   xmlns:dc="http://purl.org/dc/elements/1.1/"
   xmlns:cc="http://creativecommons.org/ns#"
   xmlns:rdf="http://www.w3.org/1999/02/22-rdf-syntax-ns#"
   xmlns:svg="http://www.w3.org/2000/svg"
   xmlns="http://www.w3.org/2000/svg"
   xml:space="preserve"
   viewBox="0 0 512.00001 512.00001"
   height="512"
   width="512"
   y="0px"
   x="0px"
   id="Layer_1"
   version="1.1"><metadata
   id="metadata41"><rdf:RDF><cc:Work
       rdf:about=""><dc:format>image/svg+xml</dc:format><dc:type
         rdf:resource="http://purl.org/dc/dcmitype/StillImage" /><dc:title></dc:title></cc:Work></rdf:RDF></metadata><defs
   id="defs39" />
<g
   transform="translate(-44.669589,-42.480474)"
   id="g34">
	<path
   id="path32"
   d="M 300.6,537.8 C 168,537.8 61.4,431 61.3,298.2 61.2,164.7 171.3,56.7 305.3,59.2 434.4,61.6 542.4,168.4 540,303 537.7,433.9 430.1,538.5 300.6,537.8 Z M 433.1,413.9 c 0,-39.3 0.9,-78 -0.3,-116.7 -0.8,-24.1 -11.3,-44.2 -35.5,-53 -24.4,-8.9 -47.6,-6.2 -67.4,12.3 -3,2.8 -5.6,6.2 -9.3,10.3 0,-8.1 0,-14.9 0,-21.8 -17,0 -33.3,0 -49.7,0 0,56.5 0,112.7 0,168.8 16.7,0 33.1,0 49.7,0 0,-2.5 0,-4.6 0,-6.7 0,-27.9 -0.3,-55.7 0.2,-83.6 0.1,-7 1.8,-14.3 4.5,-20.7 5,-11.8 17.1,-17.1 31.5,-15.5 12.1,1.4 20,8.6 22.8,21.3 1.1,5.2 1.7,10.7 1.8,16.1 0.2,27.5 0.1,54.9 0.1,82.4 0,2.2 0,4.4 0,6.8 17.7,0 34.4,0 51.6,0 z m -196.8,-0.1 c 0,-56.7 0,-112.8 0,-169 -17.4,0 -34.3,0 -51.5,0 0,56.4 0,112.6 0,169 17.2,0 34.1,0 51.5,0 z M 179.4,191.2 c 0.1,17 14.4,31.3 31.1,31.1 16.8,-0.2 31,-14.7 30.8,-31.5 -0.2,-16.9 -14.4,-31.1 -31.2,-31 -16.8,0.1 -30.8,14.4 -30.7,31.4 z" />
</g>
</svg>