<?xml version="1.0" encoding="UTF-8" standalone="no"?>
<!-- Created with Inkscape (http://www.inkscape.org/) -->

<svg
   xmlns:dc="http://purl.org/dc/elements/1.1/"
   xmlns:cc="http://creativecommons.org/ns#"
   xmlns:rdf="http://www.w3.org/1999/02/22-rdf-syntax-ns#"
   xmlns:svg="http://www.w3.org/2000/svg"
   xmlns="http://www.w3.org/2000/svg"
   xmlns:xlink="http://www.w3.org/1999/xlink"
   xmlns:sodipodi="http://sodipodi.sourceforge.net/DTD/sodipodi-0.dtd"
   xmlns:inkscape="http://www.inkscape.org/namespaces/inkscape"
   version="1.1"
   width="512"
   height="512"
   viewBox="0 0 512.00001 511.99997"
   id="Layer_1"
   xml:space="preserve"
   inkscape:version="0.92.3 (2405546, 2018-03-11)"
   sodipodi:docname="stemtap-black.svg"
   inkscape:export-filename="C:\Users\gwillz\Google Drive\MK2 Engineering\MK2 Marketing &amp; Media\Logo\Stemtap\logo favicon\ST favicon.png"
   inkscape:export-xdpi="150"
   inkscape:export-ydpi="150"><sodipodi:namedview
   pagecolor="#ffffff"
   bordercolor="#666666"
   borderopacity="1"
   objecttolerance="10"
   gridtolerance="10"
   guidetolerance="10"
   inkscape:pageopacity="0"
   inkscape:pageshadow="2"
   inkscape:window-width="1546"
   inkscape:window-height="833"
   id="namedview46"
   showgrid="false"
   inkscape:zoom="0.26666998"
   inkscape:cx="-56.249844"
   inkscape:cy="442.49451"
   inkscape:window-x="0"
   inkscape:window-y="0"
   inkscape:window-maximized="1"
   inkscape:current-layer="Layer_1" /><metadata
   id="metadata77"><rdf:RDF><cc:Work
       rdf:about=""><dc:format>image/svg+xml</dc:format><dc:type
         rdf:resource="http://purl.org/dc/dcmitype/StillImage" /><dc:title></dc:title></cc:Work></rdf:RDF></metadata><defs
   id="defs75">
	
	

		
	
			<defs
   id="defs11">
				<rect
   id="SVGID_1_"
   y="0"
   x="0"
   height="1062.1801"
   width="1040" />
			</defs>
			<clipPath
   id="SVGID_2_">
				<use
   xlink:href="#SVGID_1_"
   height="1062.1801"
   width="1040"
   y="0"
   x="0"
   style="overflow:visible"
   id="use15" />
			</clipPath>
			
			
			
		
				<defs
   id="defs45">
					<rect
   width="1040"
   height="1062.184"
   x="0"
   y="-0.0040000002"
   id="SVGID_7_" />
				</defs>
				<clipPath
   id="SVGID_8_">
					<use
   id="use49"
   style="overflow:visible"
   x="0"
   y="0"
   width="1040"
   height="1062.1801"
   xlink:href="#SVGID_7_" />
				</clipPath>
				
			
				<defs
   id="defs55">
					<rect
   width="1040"
   height="1062.184"
   x="0"
   y="-0.0040000002"
   id="SVGID_9_" />
				</defs>
				<clipPath
   id="SVGID_10_">
					<use
   id="use59"
   style="overflow:visible"
   x="0"
   y="0"
   width="1040"
   height="1062.1801"
   xlink:href="#SVGID_9_" />
				</clipPath>
				
			
					
				
				<defs
   id="defs19">
					<rect
   width="1040"
   height="1062.184"
   x="0"
   y="-0.0040000002"
   id="SVGID_3_" />
				</defs>
				<clipPath
   id="SVGID_4_">
					<use
   id="use23"
   style="overflow:visible"
   x="0"
   y="0"
   width="1040"
   height="1062.1801"
   xlink:href="#SVGID_3_" />
				</clipPath>
				
				
				
				
			
					
				
						<defs
   id="defs35">
							<rect
   width="810.45398"
   height="836.039"
   x="133.31799"
   y="92.029999"
   id="SVGID_5_" />
						</defs>
						
						
					
						<defs
   id="defs65">
							<rect
   width="257.077"
   height="380.99301"
   x="58.784"
   y="58.16"
   id="SVGID_11_" />
						</defs>
						<clipPath
   id="SVGID_12_">
							<use
   id="use69"
   style="overflow:visible"
   x="0"
   y="0"
   width="1040"
   height="1062.1801"
   xlink:href="#SVGID_11_" />
						</clipPath>
						
					</defs>
<path
   style="fill:#000000;fill-opacity:1;stroke-width:0.57627177"
   d="m 144.21198,3.1556034 c -0.473,-5.763e-4 -0.99066,0.1119869 -1.55323,0.3590404 C 106.49251,19.380559 74.012538,54.069146 50.365223,87.030158 24.242247,123.42748 4.4942945,164.82889 0.02473056,211.25162 -0.42015125,215.88139 4.9572252,228.48833 9.1415345,219.63795 26.289654,183.31208 40.855943,145.47226 62.259839,111.7108 86.10366,74.084287 115.62811,47.000481 146.30998,16.657473 c 2.90473,-2.856689 2.47446,-13.4940553 -2.098,-13.5018696 z M 276.47199,22.675681 c -129.0818,0 -233.520636,108.380749 -233.520636,240.893989 0,132.5127 104.438836,240.89286 233.520636,240.89286 129.0818,0 233.52176,-108.38016 233.52176,-240.89286 0,-132.51324 -104.43996,-240.893989 -233.52176,-240.893989 z m 0,35.614051 c 109.17546,0 197.90659,91.379358 197.90659,205.279938 0,113.89996 -88.73113,205.27769 -197.90659,205.27769 -109.17546,0 -197.906587,-91.37773 -197.906587,-205.27769 0,-113.90058 88.731127,-205.279938 197.906587,-205.279938 z m 0,22.723342 c -97.85704,0 -176.966087,82.266456 -176.966087,182.557716 0,100.29126 79.109047,182.55773 176.966087,182.55773 97.85653,0 176.96609,-82.26647 176.96609,-182.55773 0,-100.29118 -79.10905,-182.557716 -176.96609,-182.557716 z m 60.35321,58.615396 c 8.90542,0 17.81153,5.967 17.81153,17.90044 v 37.40139 h 18.16607 c 23.86629,0 23.86629,35.62192 0,35.62192 h -18.16607 v 83.35457 c 0,11.04309 6.76911,16.3866 18.16719,16.3866 23.8663,0 23.8663,35.6208 0,35.6208 -34.90939,0 -53.07684,-18.87976 -53.78912,-51.65061 v -0.35679 -83.35457 h -3.20551 c -23.86629,0 -23.86629,-35.62192 0,-35.62192 h 3.20551 v -37.40139 c 0,-11.93344 8.90499,-17.90044 17.8104,-17.90044 z M 202.92643,194.9303 h 0.35567 c 36.69007,0 61.26939,25.29238 61.26939,51.29607 0,23.86629 -35.62192,23.86629 -35.62192,0 0,-11.04252 -14.60495,-15.67415 -25.64747,-15.67415 -11.04252,0 -25.64748,4.63163 -25.64748,15.67415 0,17.81083 92.61637,12.82299 91.9041,68.39288 0,25.29199 -25.29177,51.29606 -66.25662,51.29606 -40.96486,0 -66.25663,-26.00407 -66.25663,-51.29606 0,-23.86687 35.62193,-23.86687 35.62193,0 0,11.75479 18.16752,15.67414 30.27903,15.67414 h 0.35567 c 12.46764,0 30.6347,-3.91869 30.6347,-15.31735 v -0.35679 c 0,-18.16639 -91.19183,-12.46686 -91.9041,-68.39288 0,-26.00369 24.57979,-51.29607 60.91373,-51.29607 z"
   id="path27"
   inkscape:connector-curvature="0" />
						

</svg>