<?xml version="1.0" encoding="UTF-8" standalone="no"?>
<svg
   xmlns:dc="http://purl.org/dc/elements/1.1/"
   xmlns:cc="http://creativecommons.org/ns#"
   xmlns:rdf="http://www.w3.org/1999/02/22-rdf-syntax-ns#"
   xmlns:svg="http://www.w3.org/2000/svg"
   xmlns="http://www.w3.org/2000/svg"
   id="svg8"
   version="1.1"
   viewBox="0 0 512 512"
   height="512mm"
   width="512mm">
  <defs
     id="defs2" />
  <metadata
     id="metadata5">
    <rdf:RDF>
      <cc:Work
         rdf:about="">
        <dc:format>image/svg+xml</dc:format>
        <dc:type
           rdf:resource="http://purl.org/dc/dcmitype/StillImage" />
        <dc:title></dc:title>
      </cc:Work>
    </rdf:RDF>
  </metadata>
  <g
     transform="translate(0,215)"
     id="layer1">
    <path
       id="rect901"
       d="m 110.07067,-177.09211 c -35.293555,0 -64.640878,24.54015 -71.989918,57.55669 L 148.36808,156.28029 126.78851,204.11717 36.304633,-22.172883 V 185.32556 c 0,40.86657 32.899461,73.76655 73.766037,73.76655 h 291.85868 c 40.86656,0 73.76602,-32.89998 73.76602,-73.76655 V -24.27663 L 383.56094,206.14134 361.98139,158.30446 473.60921,-120.8635 c -7.83164,-32.34405 -36.86141,-56.22861 -71.67986,-56.22861 z m 136.84229,91.941159 h 13.89786 v 48.276639 A 30.238096,30.238096 0 0 1 284.05591,-7.4905741 30.238096,30.238096 0 0 1 277.277,11.552189 l 63.022,138.101641 36.5683,76.03773 -7.2259,3.47525 -36.46342,-75.82019 -15.20526,6.93912 -62.78688,-137.586427 a 30.238096,30.238096 0 0 1 -1.36839,0.04806 30.238096,30.238096 0 0 1 -2.91145,-0.145727 l -62.83079,137.684094 -15.49518,-7.07141 -36.99515,76.92504 -7.22592,-3.47525 43.96063,-91.40838 57.04974,-125.015612 a 30.238096,30.238096 0 0 1 -5.78982,-17.7307021 30.238096,30.238096 0 0 1 23.33345,-29.4018229 z"
       style="opacity:0.98999999;fill:#000000;fill-opacity:1;stroke:none;stroke-width:0.26458332;stroke-opacity:1" />
  </g>
</svg>
