<?xml version="1.0" encoding="UTF-8" standalone="no"?>
<svg
   xmlns:dc="http://purl.org/dc/elements/1.1/"
   xmlns:cc="http://creativecommons.org/ns#"
   xmlns:rdf="http://www.w3.org/1999/02/22-rdf-syntax-ns#"
   xmlns:svg="http://www.w3.org/2000/svg"
   xmlns="http://www.w3.org/2000/svg"
   xml:space="preserve"
   viewBox="0 0 512.00001 512.00001"
   height="512"
   width="512"
   y="0px"
   x="0px"
   id="Layer_1"
   version="1.1"><metadata
   id="metadata19"><rdf:RDF><cc:Work
       rdf:about=""><dc:format>image/svg+xml</dc:format><dc:type
         rdf:resource="http://purl.org/dc/dcmitype/StillImage" /><dc:title></dc:title></cc:Work></rdf:RDF></metadata><defs
   id="defs17" />
<g
   transform="translate(-43.500141,-41.998334)"
   id="g12">
	<path
   id="path2"
   d="M 61.2,298.1 C 61.2,166.5 168.7,59.1 299.8,59.8 431.7,60.5 538,167 537.8,298.2 537.6,429.7 430.8,536.3 299.4,536.2 168,536.2 61.2,429.4 61.2,298.1 Z M 299.7,189 c -44.3,0 -88.6,0 -132.9,0 -10.5,0 -14.8,4.3 -14.8,14.9 0,62.6 0,125.3 0,187.9 0,10.8 4.4,15.3 15.1,15.3 88.3,0 176.6,0 264.9,0 10.6,0 15.1,-4.6 15.1,-15.3 0,-62.3 0,-124.6 0,-186.9 0,-11.9 -3.9,-15.8 -15.9,-15.8 C 387.3,189 343.5,189 299.7,189 Z" />
	<path
   id="path4"
   d="m 194.2,213.5 c 70.4,0 140.1,0 210.5,0 -1,1.2 -1.6,2.3 -2.4,3.1 -32.6,32.7 -65.1,65.3 -97.7,98 -4.1,4.1 -5.9,4.3 -9.6,0.6 -33.3,-33.4 -66.5,-66.8 -99.8,-100.2 -0.3,-0.2 -0.4,-0.6 -1,-1.5 z" />
	<path
   id="path6"
   d="m 191.7,382.1 c 21.5,-24.3 42.5,-47.9 63.9,-72.1 7,7.1 13.9,14.1 20.7,21 15,15.2 31.1,15.2 46.2,0.1 6.9,-6.9 13.9,-13.8 21,-20.9 21.2,23.9 42.2,47.5 63.8,71.9 -72.1,0 -143.3,0 -215.6,0 z" />
	<path
   id="path8"
   d="m 422.3,362.3 c -20.8,-23.5 -41,-46.2 -61,-68.7 20.6,-20.4 41,-40.5 61,-60.3 0,41.7 0,84.7 0,129 z" />
	<path
   id="path10"
   d="m 176.6,232.5 c 20.2,20.1 40.5,40.3 61.1,60.9 -19.9,22.4 -40.2,45.3 -61.1,68.9 0,-44.1 0,-87.2 0,-129.8 z" />
</g>
</svg>