<?xml version="1.0" encoding="UTF-8" standalone="no"?>
<svg
   xmlns:dc="http://purl.org/dc/elements/1.1/"
   xmlns:cc="http://creativecommons.org/ns#"
   xmlns:rdf="http://www.w3.org/1999/02/22-rdf-syntax-ns#"
   xmlns:svg="http://www.w3.org/2000/svg"
   xmlns="http://www.w3.org/2000/svg"
   xml:space="preserve"
   viewBox="0 0 512.00001 512.00001"
   height="512"
   width="512"
   y="0px"
   x="0px"
   id="Layer_1"
   version="1.1"><metadata
   id="metadata11"><rdf:RDF><cc:Work
       rdf:about=""><dc:format>image/svg+xml</dc:format><dc:type
         rdf:resource="http://purl.org/dc/dcmitype/StillImage" /><dc:title></dc:title></cc:Work></rdf:RDF></metadata><defs
   id="defs9" />
<style
   id="style2"
   type="text/css">
	.st0{fill-rule:evenodd;clip-rule:evenodd;fill:#0F0C0D;}
</style>
<path
   style="clip-rule:evenodd;fill:#0f0c0d;fill-rule:evenodd;stroke-width:1.18600309"
   id="path4"
   d="m 256.11841,14.742474 c -136.62755,0 -247.4002356,110.772686 -247.4002356,247.400236 0,109.34949 70.9229826,201.97633 169.2426356,234.71001 12.33443,2.2534 16.84124,-5.33702 16.84124,-11.97864 0,-5.93001 -0.2372,-21.46665 -0.3558,-42.1031 -68.78817,14.94364 -83.37601,-33.20809 -83.37601,-33.20809 C 99.803209,380.98022 83.554967,373.3898 83.554967,373.3898 c -22.415458,-15.29944 1.660404,-15.06224 1.660404,-15.06224 24.787459,1.779 37.952099,25.49907 37.952099,25.49907 22.05965,37.8335 57.87695,26.92226 71.99038,20.51784 2.25341,-16.01103 8.65782,-26.92226 15.65524,-33.08947 -54.91193,-6.28582 -112.670283,-27.51528 -112.670283,-122.27692 0,-27.04087 9.606623,-49.10053 25.499063,-66.41617 -2.49061,-6.28582 -11.02983,-31.42908 2.37201,-65.46737 0,0 20.75504,-6.64162 68.07657,25.38046 19.68766,-5.45561 40.91711,-8.18342 61.90936,-8.30202 20.99225,0.1186 42.22171,2.84641 61.90936,8.30202 47.20292,-32.02208 67.95797,-25.38046 67.95797,-25.38046 13.52044,34.03829 4.98122,59.18155 2.49062,65.46737 15.89243,17.31564 25.38046,39.3753 25.38046,66.41617 0,94.99884 -57.87695,115.9911 -112.90749,122.03971 8.89502,7.59042 16.84124,22.77126 16.84124,45.77972 0,33.08949 -0.3558,59.77455 -0.3558,67.83937 0,6.64162 4.5068,14.35064 16.95984,11.86004 C 432.47707,463.76324 503.28144,371.01779 503.28144,261.78691 503.51864,125.51516 392.74596,14.742474 256.11841,14.742474 Z"
   class="st0" />
</svg>