<?xml version="1.0" encoding="UTF-8" standalone="no"?>
<svg
   xmlns:dc="http://purl.org/dc/elements/1.1/"
   xmlns:cc="http://creativecommons.org/ns#"
   xmlns:rdf="http://www.w3.org/1999/02/22-rdf-syntax-ns#"
   xmlns:svg="http://www.w3.org/2000/svg"
   xmlns="http://www.w3.org/2000/svg"
   xmlns:xlink="http://www.w3.org/1999/xlink"
   version="1.1"
   id="Layer_1"
   x="0px"
   y="0px"
   width="406.21994"
   height="494.23453"
   viewBox="0 0 406.21995 494.23454"
   xml:space="preserve"><metadata
   id="metadata43"><rdf:RDF><cc:Work
       rdf:about=""><dc:format>image/svg+xml</dc:format><dc:type
         rdf:resource="http://purl.org/dc/dcmitype/StillImage" /><dc:title></dc:title></cc:Work></rdf:RDF></metadata><defs
   id="defs41" />
<style
   type="text/css"
   id="style2">
	.st0{fill:none;}
	.st1{fill:url(#SVGID_1_);}
</style>
<defs id="defs">
<pattern
   width="5"
   height="5"
   patternUnits="userSpaceOnUse"
   id="Poka_Dot_3"
   viewBox="0 -34 34 34">
	<g
   id="g8">
		<rect
   y="-34"
   class="st0"
   width="34"
   height="34"
   id="rect4" />
		<circle
   cx="17"
   cy="-17"
   r="8.5"
   id="circle6" />
	</g>
</pattern>
</defs>
<g
   id="g33"
   transform="translate(-107.85164,-51)">
	<path
   d="m 250.5,247.3 c 0.3,1.9 0.8,3.6 0.9,5.4 0.6,9 1.1,18 1.5,27 0.4,8.8 0.6,17.5 2.2,26.2 1.6,8.6 2.8,17.3 2.4,26.2 0,0.2 0.2,0.4 0.4,0.9 1.2,-0.1 2.5,-0.3 3.8,-0.4 4.5,-0.5 7.7,1.6 8.5,5.7 0.8,4 -1.5,7.5 -5.7,8.6 -4.8,1.2 -9.7,0.9 -14.3,-0.9 -3.6,-1.5 -5.6,-4.3 -6,-8.3 -0.8,-7.4 -1.7,-14.7 -2.8,-22.1 -0.9,-6.3 -2.3,-12.6 -3,-19 -0.5,-4.5 -0.2,-9 -0.4,-13.5 -0.2,-4.6 -0.7,-9.2 -1,-13.8 -0.3,-3.7 -0.6,-7.4 -0.9,-11.1 -0.1,-1.3 -0.3,-2.6 -0.5,-4.4 -2.1,0.6 -4,1 -5.7,1.7 -4.8,1.8 -9.8,2.6 -14.9,2.8 -4.3,0.2 -7.7,-2.6 -8.1,-6.5 -0.4,-4.1 2.4,-7.7 6.9,-8.1 4.1,-0.4 8,-1.1 11.9,-2.2 5,-1.4 9.2,-4.2 13.7,-6.4 9.4,-4.6 18.7,-9.3 28.1,-13.9 2.6,-1.3 5.3,-2.5 8,-3.6 4.4,-1.7 8.3,-4.2 11.6,-7.4 5.9,-5.6 11.6,-11.4 17.3,-17.1 1.4,-1.4 2.9,-2.9 4.5,-4.1 2.6,-1.9 5,-1.8 7.3,0.5 1.1,1.2 2,2.7 2.8,4.2 2.9,5.7 5.5,11.6 8.5,17.3 3,5.8 5.6,11.8 9.6,17 1.6,2 3.2,4.1 5,6.5 0.6,-1 0.8,-1.8 1.3,-2.2 1.3,-1.2 2.5,-2.7 4.1,-3.4 8,-3.1 15.8,-2.2 22.9,2.5 7.2,4.8 11.6,11.8 12.8,20.5 0.6,4.8 0.8,9.6 0.6,14.4 -0.2,6.1 -3.5,10.6 -8.7,13.6 -3.9,2.2 -8,4 -12.1,6.1 -0.4,6.9 -0.6,13.7 -1.2,20.4 -0.7,8 -1.6,15.9 -2.5,23.9 -0.5,4.4 -0.9,8.7 -1.6,13.1 -0.3,1.7 -0.8,3.5 -1.7,5.1 -5.8,9.8 -11.8,19.5 -20.2,27.3 -2.3,2.1 -4.4,4.5 -6.9,7.1 2.2,16.9 4.5,34.2 6.8,51.8 2.2,0.5 4.4,-0.1 6.5,-0.7 12.1,-3.2 24.4,-2.3 36.6,-0.7 9.2,1.2 18.4,3.2 27.5,5.3 13.3,3.1 26.1,7.6 38.5,13.3 11.2,5.2 22.8,9.6 34.3,14.2 9.7,3.9 19.6,7.4 29.3,11.1 0.3,0.1 0.6,0.2 0.9,0.4 3.9,1.8 5.7,5.7 4.3,9.5 -1.4,3.7 -5.9,5.7 -9.8,4.3 -19.2,-7.3 -38.5,-14.6 -57.7,-22 -5.2,-2 -10.3,-4.6 -15.4,-7 -6.4,-2.9 -12.9,-5.2 -19.8,-6.8 -7.8,-1.8 -15.4,-4.3 -23,-6.8 -4.2,-1.4 -8.7,-2 -13.1,-3 -1.6,-0.4 -2.2,0.6 -2.8,1.8 -2,3.8 -3.9,7.6 -6.1,11.2 -3.4,5.4 -8.3,9 -14.1,11.6 -11.1,5.1 -22.9,7.9 -34.8,10.4 -12.7,2.7 -25.5,2.2 -38.3,1.4 -5.4,-0.3 -10.8,-1 -16.2,-1.1 -8.2,-0.2 -15.9,-2.6 -23.6,-5.4 -6.9,-2.6 -12.8,-6.5 -18.3,-11.3 -1.3,-1.1 -2.5,-2.2 -3.8,-3.3 -2.6,-2.1 -3.3,-2.1 -6.3,-0.6 -6.9,3.3 -13.7,6.8 -20,11.3 -7.2,5.2 -14.4,10.5 -21.5,15.8 -12.2,9 -21.7,20.5 -30.2,33 -4.2,6.1 -8.3,12.3 -12.5,18.4 -0.7,1 -1.2,2.1 -2,3.1 -2.4,3.2 -6.5,4.1 -9.6,2 -2.9,-2 -3.9,-6.5 -1.8,-9.7 2.8,-4.3 6,-8.4 8.8,-12.7 2.4,-3.7 4.7,-7.4 6.5,-11.4 2.1,-4.6 5.2,-8.4 8.3,-12.2 10.2,-12.6 22.6,-22.8 35.8,-32.1 7.1,-5 14.4,-9.6 21.8,-14.2 5.9,-3.6 12.3,-6 19.1,-7.4 -0.6,-3.2 -1.4,-6.2 -1.6,-9.3 -1.2,-12.4 -2.3,-24.9 -3.4,-37.3 -0.3,-3.4 -0.6,-6.7 -0.8,-10.1 -0.2,-2.5 -0.9,-4.3 -3.6,-5.4 -5.9,-2.3 -10.6,-6.2 -15.1,-10.6 -3.8,-3.7 -7.7,-7.2 -10.8,-11.5 -5.6,-7.7 -9.1,-16.1 -11.2,-25.4 -1.2,-5.2 -2.5,-10.3 -2,-15.6 0.3,-3.3 1.3,-6.6 2.1,-9.8 0.3,-1.1 1.3,-2 1.9,-3 2.1,0.7 2.7,2.3 3.2,3.7 0.9,2.8 1.7,5.6 2.1,8.5 0.6,4 1.5,7.9 3.1,11.7 1.5,3.4 2.7,6.9 3.8,10.5 2.3,7.1 6.6,13.1 11.7,18.3 3.4,3.4 7.2,6.5 11,9.4 2.3,1.7 5,3.1 7.6,4.2 7.5,3 10.7,8.9 11.4,16.5 1,12.2 1.9,24.5 2.7,36.7 0.2,2.9 0,5.9 0.1,8.8 0.1,3.6 0.4,7.2 0.5,10.8 0.1,1.6 0.4,3.3 -0.1,4.7 -0.6,2.1 0.3,3.5 1.7,4.3 4.7,2.6 9.4,5.4 14.5,7.1 8.4,2.9 17.1,4.4 26.1,5 11,0.7 22,1.2 33.1,1.2 6.3,0 12.2,-1.7 18.3,-2.9 8.9,-1.7 17.5,-4.2 25.6,-8.1 2,-1 3.9,-2.3 5.6,-3.6 2.9,-2.2 5.6,-4.5 8.3,-6.8 0.3,-0.3 0.5,-0.6 0.9,-1.1 -0.6,-0.2 -1,-0.5 -1.4,-0.5 -5.4,-0.2 -10.8,-0.3 -16.2,-0.4 -3.6,-0.1 -7.2,0.7 -10.7,-0.9 -0.4,-0.2 -1.1,0 -1.6,0.1 -4,0.4 -6.8,-1.5 -7.6,-5.5 -0.9,-3.8 -1.7,-7.7 -2,-11.6 -0.7,-6.7 -1,-13.5 -1.5,-20.2 -0.4,-5.9 -0.9,-11.9 -1.4,-18.1 -0.8,0.4 -1.4,0.6 -1.9,1 -12,7.6 -25.3,12.3 -38.9,15.9 -1.8,0.5 -3.8,0.5 -5.7,0.4 -3.6,-0.1 -6.2,-2.5 -6.4,-5.7 -0.3,-3.3 1.8,-6 5.2,-6.9 1.6,-0.4 3.4,-0.4 5,-0.8 11.5,-3 22.4,-7.3 33.1,-12.5 7.4,-3.6 13.4,-9 19.7,-14.1 0.6,-0.5 1.2,-1.1 1.8,-1.5 6.9,-4.7 11.6,-11.1 14.9,-18.7 2.8,-6.5 4.1,-13.3 4.9,-20.2 1.5,-12.9 3,-25.7 4.4,-38.6 0.2,-1.9 0.2,-3.8 0.5,-5.7 0.4,-3.3 1.6,-6 4.9,-7.5 1.9,-0.9 3.8,-2 5.6,-3.1 2.7,-1.5 4,-3.8 4.1,-6.9 0.2,-6.6 -1.1,-12.6 -5.2,-18.1 -2.8,-3.8 -6.4,-4.6 -10.6,-4.5 -1.5,0 -3,0.4 -5,0.7 0.8,0.9 1.3,1.5 1.8,1.9 0.6,0.5 1.3,0.9 1.9,1.4 2.2,2.1 2.7,4.7 1.6,6.7 -1.3,2.2 -3.8,3 -6.8,2.3 -8.8,-2 -15.4,-7.2 -20.5,-14.4 -2.9,-4.1 -6,-8.3 -8,-12.9 -2.9,-6.6 -6.4,-13.2 -6.7,-20.7 -0.1,-1.6 -0.6,-3.2 -1,-5.4 -0.7,0.9 -1.1,1.4 -1.5,1.9 -0.8,1.2 -1.6,2.5 -2.5,3.6 -8,9.1 -16.4,17.7 -26.7,24.6 -8.5,5.7 -17.5,10.1 -26.3,15 -0.7,0.4 -1.4,0.7 -2.1,1.1 0.2,0 0,0.3 -0.6,0.8 z"
   id="path11" />
	<path
   d="m 139.4,238.2 c -3.6,4.1 -7.3,6.6 -11.3,8.6 -1.2,0.6 -2.5,0.9 -3.8,1 -1.5,0.1 -2.5,-0.8 -3.1,-2.2 -1,-2.4 -1.5,-4.8 -0.1,-7.1 1.9,-3.1 3.7,-6.2 5.8,-9.1 2.1,-2.9 4.6,-5.6 6.8,-8.4 3.1,-3.8 7.1,-5.8 12.1,-5.6 4.7,0.2 7.9,3.3 7.9,7.9 0,5.8 -0.4,11.7 -0.8,17.5 -0.6,7.8 -0.4,15.5 2.5,22.9 0.2,0.6 0.6,1.2 1,2 2.2,-3.3 4.2,-6.4 6.4,-9.3 4.9,-6.7 11.3,-11.9 17.7,-17.1 8.4,-6.9 18.2,-11.6 27.5,-17 3.3,-1.9 6.6,-3.9 10,-5.6 3.2,-1.6 6.6,-3 9.8,-4.4 6.4,-2.9 12.1,-6.9 17.7,-11.2 4.5,-3.4 8.9,-6.9 13.4,-10.3 2,-1.5 4,-2.9 6.7,-3 2.5,-0.1 3.6,0.9 3.5,3.4 -0.2,3.5 -1.4,6.5 -3.3,9.4 -2.7,4.1 -6.3,7.3 -10,10.5 -6.6,5.7 -13.9,10.4 -21.5,14.6 -4.4,2.4 -9.1,4.4 -13.5,6.9 -8.1,4.5 -16.2,8.9 -24,13.8 -10.9,6.8 -20.5,15 -26.7,26.7 -1.1,2.1 -1.9,4.3 -3,6.4 -1.5,3 -3.7,5.1 -7.3,5.1 -0.7,0 -1.5,0.1 -2,-0.2 -4.1,-2.4 -8.3,-4.4 -11.3,-8.3 -3.7,-5 -5.2,-10.7 -6.4,-16.5 -1.5,-6.8 -0.9,-13.7 -0.7,-21.4 z"
   id="path13" />
	<path
   d="m 251,84.5 c -6.8,0.2 -13.5,0.2 -20.3,0.5 -3.2,0.2 -6.5,0.7 -9.7,1.3 -6.8,1.4 -13.6,2.9 -20.4,4.5 -1.5,0.4 -3,1 -4.3,1.8 -3.1,1.6 -6.1,3.3 -9.2,5 -6.3,3.5 -11.5,8.2 -16.5,13.3 -6.6,6.8 -13.1,13.7 -19.8,20.3 -3.4,3.3 -7,6.3 -11.7,7.8 -2.1,0.7 -3.9,0.7 -5.6,-0.9 -1.8,-1.7 -2.7,-3.9 -1.7,-6.1 1,-2.3 2.5,-4.5 4.1,-6.5 1.9,-2.2 4,-4.3 6.3,-6.1 7.1,-5.6 12.9,-12.5 19.1,-19 5.8,-6.1 12.1,-11.8 19.7,-15.8 2.5,-1.3 5,-2.7 7.4,-4.1 3.6,-2.1 7.6,-3.4 11.6,-4.4 10.4,-2.8 20.9,-4.8 31.6,-4.9 10.9,-0.1 21.8,0.7 32.7,1.3 4.9,0.3 8.9,3.1 13,5.4 0.9,0.5 1.8,2.2 1.7,3.3 -0.1,0.8 -1.6,1.9 -2.6,2.1 -2.2,0.5 -4.4,0.8 -6.7,0.9 -6.2,0.1 -12.4,0 -18.6,0 -0.1,0.1 -0.1,0.2 -0.1,0.3 z"
   id="path15" />
	<path
   d="m 368.5,174.5 c 0,6.3 0.1,12.6 0,18.9 -0.1,3.5 -2.4,6.1 -5.6,6.7 -3.4,0.5 -6.5,-1.1 -7.6,-4.2 -0.4,-1 -0.5,-2.2 -0.5,-3.3 -0.2,-10 -0.1,-20 -0.6,-30 -0.6,-12.5 -2.8,-24.8 -7,-36.6 -1.3,-3.8 -2.3,-7.8 -3.4,-11.7 -0.6,-2.4 0.1,-4.3 1.8,-5.3 1.8,-1.1 4.1,-0.9 5.7,1.2 2.7,3.3 5.5,6.7 7.4,10.4 3.8,7.4 5.5,15.6 7.1,23.8 2,9.9 2.5,19.9 2.7,30.1 z"
   id="path17" />
	<path
   d="m 285.3,260.1 c 0.1,-2.7 1.3,-4.5 3.3,-5.4 2,-0.9 4.3,-1.6 6.5,-1.8 10,-0.8 19.7,0.9 29.2,4.2 3.7,1.3 5.8,4.3 5.2,7.7 -0.8,4.3 -4.5,6.7 -8.8,5.6 -1.6,-0.4 -3.2,-1 -4.8,-1.5 -7.2,-2.4 -14.6,-2.7 -22,-2.4 -1,0 -2,0 -3,-0.1 -3.5,-0.6 -5.7,-3.3 -5.6,-6.3 z"
   id="path19" />
	<path
   d="m 295.4,63.7 c 0,1 0,2 0,3 0.1,3.7 0.7,7.1 3,10.2 1.2,1.5 2.1,3.2 3,4.9 0.8,1.6 0.5,3.3 -0.5,4.8 -1,1.6 -2.5,1.7 -4.2,1.3 -7.1,-1.4 -14,-5.7 -15.2,-16.1 -0.6,-4.6 -0.7,-9.2 -0.7,-13.8 0,-4 3.3,-7 7.2,-7 3.9,0 7.1,2.9 7.3,6.9 0.1,1.9 0,3.9 0.1,5.8 -0.1,0 -0.1,0 0,0 z"
   id="path21" />
	<path
   d="m 116.4,159.5 c 5.1,0.1 10,-1.2 14.8,-3.1 3,-1.2 6.2,-2 9.4,-2.7 1,-0.3 2.3,-0.1 3.3,0.2 2.8,0.9 4,3.5 2.7,6.2 -0.6,1.2 -1.4,2.3 -2.4,3.3 -5.9,5.6 -12.8,9.1 -21,9.7 -1.9,0.1 -3.8,0.4 -5.7,0.4 -2.7,0 -5.1,-0.8 -7.1,-2.6 -2.6,-2.3 -3.1,-4.1 -2,-7.2 1,-2.9 3.4,-3.7 6.1,-4 0.5,-0.2 1.2,-0.2 1.9,-0.2 z"
   id="path23" />
	<path
   d="m 183.5,282.4 c -3.4,0 -6.1,-1.8 -6.9,-4.1 -1,-2.7 -0.1,-5.9 2.5,-7.4 3.8,-2.1 7.8,-4 11.8,-5.7 1.6,-0.7 3.5,-0.9 5.2,-1.5 4.9,-1.7 9.7,-1.2 14.6,0.2 2.8,0.8 4.3,2.6 4.4,4.9 0.1,2.4 -1.2,4.2 -4,5.2 -2.5,0.9 -5.1,1.6 -7.8,2.1 -4.7,0.8 -9.1,2.3 -13.5,4.2 -2.2,1 -4.7,1.5 -6.3,2.1 z"
   id="path25" />
	<path
   d="m 272.3,375.6 c -1.4,-0.7 -3.1,-1.2 -4.3,-2.3 -3.1,-2.7 -2.6,-9.3 0.6,-11.8 1.4,-1.1 3.1,-1.4 4.8,-1.1 3.5,0.6 7.1,5.5 6.8,9 -0.4,3.4 -3.7,5.8 -7.9,6.2 z"
   id="path27" />
	<path
   d="m 206.1,298.2 c 3.9,0.1 7.4,3.9 7.3,7.9 -0.1,3.8 -3,6.8 -6.6,6.8 -3.8,-0.1 -6.8,-3.6 -6.7,-7.8 0.1,-4.1 2.6,-7 6,-6.9 z"
   id="path29" />
	<path
   d="m 306.5,287.7 c 1.2,0.6 2.7,1.1 3.7,2 2.5,2.3 3.4,5.2 2.4,8.6 -1,3.5 -5.5,5 -8.7,3.2 -3.4,-1.9 -4.7,-9.9 -0.7,-12.3 0.9,-0.6 2,-0.9 3.3,-1.5 z"
   id="path31" />
</g>
<path
   class="st1"
   d="m 228.94836,51.9 c -5.4,-4 -11.1,-7.4 -17.1,-10.2 0,-1.2 -0.1,-2.5 -0.3,-3.9 -1.3,-8.4 -12.1,-31.8 -19,-32.8 -2.5,-0.4 -5,1.4 -6.5,4.1 -1.5,2.6 -2.1,6 -2.2,9.2 -0.1,5.2 0.9,10.1 2.7,14.8 -10.5,-2.5 -21.2,-3.8 -31.7,-4.4 -25.3,-1.3 -51.3,1.6 -74.4,12.2 -25.600004,11.7 -46.100004,31.8 -66.100004,51.6 -4.4000001,4.4 -9.2000001,9.8 -8.3000001,16 0.5,3.1 2.3,5.8 3.4,8.7 3.5000001,9.4 -1,19.6 -3.9,29.2 -2.9,9.6 -3.3,22.1 5.2000001,27.4 6.6,4.1 16.3,2.3 21.5,8.1 6.1,6.8 0.6,18.2 4.5,26.5 4.3,9.2 18,9.7 26.6,4.3 8.600004,-5.5 13.800004,-14.7 20.500004,-22.4 6.7,-7.7 16.7,-14.3 26.4,-11.6 -8.1,1.5 -10.9,14.3 -4.1,19 5.8,4 13.7,1.4 20.1,-1.5 27.8,-13 53.1,-31.4 74.1,-53.8 10.4,13 20.8,26.2 28.4,41 7.6,14.8 12.3,31.6 10.3,48.1 -2.6,22.4 -17.5,42.3 -36.7,54.1 -19.2,11.8 -42.3,16.3 -64.8,16 -22.6,-0.2 -44.8,-4.9 -66.7,-10.2 9.7,12.1 19.5,24.3 31.4,34.3 11.9,10 26.2,17.6 41.7,19.2 14.6,1.5 29.1,-2.5 42.9,-7.7 23.6,-8.8 47.2,-22.3 58.8,-44.6 8.4,-16.2 9.6,-35.1 8.4,-53.3 -1.2,-18.2 -4.5,-36.3 -4.5,-54.5 0,-19.8 4.1,-39.4 5.5,-59.1 2,-28.5 -2.2,-55.9 -26.1,-73.8 z"
   id="path36"
   style="fill:url(#Poka_Dot_3)" />
</svg>