<?xml version="1.0" encoding="utf-8"?>
<!-- Generator: Adobe Illustrator 21.1.0, SVG Export Plug-In . SVG Version: 6.00 Build 0)  -->
<svg version="1.1" id="Layer_1" xmlns="http://www.w3.org/2000/svg" xmlns:xlink="http://www.w3.org/1999/xlink" x="0px" y="0px"
	 width="595.3px" height="595.3px" viewBox="0 0 595.3 595.3" style="enable-background:new 0 0 595.3 595.3;" xml:space="preserve"
	>
<style type="text/css">
	.st0{fill:none;}
	.st1{fill:url(#SVGID_1_);}
</style>
<pattern  width="34" height="34" patternUnits="userSpaceOnUse" id="Poka_Dot_3" viewBox="0 -34 34 34" style="overflow:visible;">
	<g>
		<rect y="-34" class="st0" width="34" height="34"/>
		<circle cx="17" cy="-17" r="8.5"/>
	</g>
</pattern>
<g>
	<path d="M250.5,247.3c0.3,1.9,0.8,3.6,0.9,5.4c0.6,9,1.1,18,1.5,27c0.4,8.8,0.6,17.5,2.2,26.2c1.6,8.6,2.8,17.3,2.4,26.2
		c0,0.2,0.2,0.4,0.4,0.9c1.2-0.1,2.5-0.3,3.8-0.4c4.5-0.5,7.7,1.6,8.5,5.7c0.8,4-1.5,7.5-5.7,8.6c-4.8,1.2-9.7,0.9-14.3-0.9
		c-3.6-1.5-5.6-4.3-6-8.3c-0.8-7.4-1.7-14.7-2.8-22.1c-0.9-6.3-2.3-12.6-3-19c-0.5-4.5-0.2-9-0.4-13.5c-0.2-4.6-0.7-9.2-1-13.8
		c-0.3-3.7-0.6-7.4-0.9-11.1c-0.1-1.3-0.3-2.6-0.5-4.4c-2.1,0.6-4,1-5.7,1.7c-4.8,1.8-9.8,2.6-14.9,2.8c-4.3,0.2-7.7-2.6-8.1-6.5
		c-0.4-4.1,2.4-7.7,6.9-8.1c4.1-0.4,8-1.1,11.9-2.2c5-1.4,9.2-4.2,13.7-6.4c9.4-4.6,18.7-9.3,28.1-13.9c2.6-1.3,5.3-2.5,8-3.6
		c4.4-1.7,8.3-4.2,11.6-7.4c5.9-5.6,11.6-11.4,17.3-17.1c1.4-1.4,2.9-2.9,4.5-4.1c2.6-1.9,5-1.8,7.3,0.5c1.1,1.2,2,2.7,2.8,4.2
		c2.9,5.7,5.5,11.6,8.5,17.3c3,5.8,5.6,11.8,9.6,17c1.6,2,3.2,4.1,5,6.5c0.6-1,0.8-1.8,1.3-2.2c1.3-1.2,2.5-2.7,4.1-3.4
		c8-3.1,15.8-2.2,22.9,2.5c7.2,4.8,11.6,11.8,12.8,20.5c0.6,4.8,0.8,9.6,0.6,14.4c-0.2,6.1-3.5,10.6-8.7,13.6c-3.9,2.2-8,4-12.1,6.1
		c-0.4,6.9-0.6,13.7-1.2,20.4c-0.7,8-1.6,15.9-2.5,23.9c-0.5,4.4-0.9,8.7-1.6,13.1c-0.3,1.7-0.8,3.5-1.7,5.1
		c-5.8,9.8-11.8,19.5-20.2,27.3c-2.3,2.1-4.4,4.5-6.9,7.1c2.2,16.9,4.5,34.2,6.8,51.8c2.2,0.5,4.4-0.1,6.5-0.7
		c12.1-3.2,24.4-2.3,36.6-0.7c9.2,1.2,18.4,3.2,27.5,5.3c13.3,3.1,26.1,7.6,38.5,13.3c11.2,5.2,22.8,9.6,34.3,14.2
		c9.7,3.9,19.6,7.4,29.3,11.1c0.3,0.1,0.6,0.2,0.9,0.4c3.9,1.8,5.7,5.7,4.3,9.5c-1.4,3.7-5.9,5.7-9.8,4.3
		c-19.2-7.3-38.5-14.6-57.7-22c-5.2-2-10.3-4.6-15.4-7c-6.4-2.9-12.9-5.2-19.8-6.8c-7.8-1.8-15.4-4.3-23-6.8c-4.2-1.4-8.7-2-13.1-3
		c-1.6-0.4-2.2,0.6-2.8,1.8c-2,3.8-3.9,7.6-6.1,11.2c-3.4,5.4-8.3,9-14.1,11.6c-11.1,5.1-22.9,7.9-34.8,10.4
		c-12.7,2.7-25.5,2.2-38.3,1.4c-5.4-0.3-10.8-1-16.2-1.1c-8.2-0.2-15.9-2.6-23.6-5.4c-6.9-2.6-12.8-6.5-18.3-11.3
		c-1.3-1.1-2.5-2.2-3.8-3.3c-2.6-2.1-3.3-2.1-6.3-0.6c-6.9,3.3-13.7,6.8-20,11.3c-7.2,5.2-14.4,10.5-21.5,15.8
		c-12.2,9-21.7,20.5-30.2,33c-4.2,6.1-8.3,12.3-12.5,18.4c-0.7,1-1.2,2.1-2,3.1c-2.4,3.2-6.5,4.1-9.6,2c-2.9-2-3.9-6.5-1.8-9.7
		c2.8-4.3,6-8.4,8.8-12.7c2.4-3.7,4.7-7.4,6.5-11.4c2.1-4.6,5.2-8.4,8.3-12.2c10.2-12.6,22.6-22.8,35.8-32.1
		c7.1-5,14.4-9.6,21.8-14.2c5.9-3.6,12.3-6,19.1-7.4c-0.6-3.2-1.4-6.2-1.6-9.3c-1.2-12.4-2.3-24.9-3.4-37.3
		c-0.3-3.4-0.6-6.7-0.8-10.1c-0.2-2.5-0.9-4.3-3.6-5.4c-5.9-2.3-10.6-6.2-15.1-10.6c-3.8-3.7-7.7-7.2-10.8-11.5
		c-5.6-7.7-9.1-16.1-11.2-25.4c-1.2-5.2-2.5-10.3-2-15.6c0.3-3.3,1.3-6.6,2.1-9.8c0.3-1.1,1.3-2,1.9-3c2.1,0.7,2.7,2.3,3.2,3.7
		c0.9,2.8,1.7,5.6,2.1,8.5c0.6,4,1.5,7.9,3.1,11.7c1.5,3.4,2.7,6.9,3.8,10.5c2.3,7.1,6.6,13.1,11.7,18.3c3.4,3.4,7.2,6.5,11,9.4
		c2.3,1.7,5,3.1,7.6,4.2c7.5,3,10.7,8.9,11.4,16.5c1,12.2,1.9,24.5,2.7,36.7c0.2,2.9,0,5.9,0.1,8.8c0.1,3.6,0.4,7.2,0.5,10.8
		c0.1,1.6,0.4,3.3-0.1,4.7c-0.6,2.1,0.3,3.5,1.7,4.3c4.7,2.6,9.4,5.4,14.5,7.1c8.4,2.9,17.1,4.4,26.1,5c11,0.7,22,1.2,33.1,1.2
		c6.3,0,12.2-1.7,18.3-2.9c8.9-1.7,17.5-4.2,25.6-8.1c2-1,3.9-2.3,5.6-3.6c2.9-2.2,5.6-4.5,8.3-6.8c0.3-0.3,0.5-0.6,0.9-1.1
		c-0.6-0.2-1-0.5-1.4-0.5c-5.4-0.2-10.8-0.3-16.2-0.4c-3.6-0.1-7.2,0.7-10.7-0.9c-0.4-0.2-1.1,0-1.6,0.1c-4,0.4-6.8-1.5-7.6-5.5
		c-0.9-3.8-1.7-7.7-2-11.6c-0.7-6.7-1-13.5-1.5-20.2c-0.4-5.9-0.9-11.9-1.4-18.1c-0.8,0.4-1.4,0.6-1.9,1
		c-12,7.6-25.3,12.3-38.9,15.9c-1.8,0.5-3.8,0.5-5.7,0.4c-3.6-0.1-6.2-2.5-6.4-5.7c-0.3-3.3,1.8-6,5.2-6.9c1.6-0.4,3.4-0.4,5-0.8
		c11.5-3,22.4-7.3,33.1-12.5c7.4-3.6,13.4-9,19.7-14.1c0.6-0.5,1.2-1.1,1.8-1.5c6.9-4.7,11.6-11.1,14.9-18.7
		c2.8-6.5,4.1-13.3,4.9-20.2c1.5-12.9,3-25.7,4.4-38.6c0.2-1.9,0.2-3.8,0.5-5.7c0.4-3.3,1.6-6,4.9-7.5c1.9-0.9,3.8-2,5.6-3.1
		c2.7-1.5,4-3.8,4.1-6.9c0.2-6.6-1.1-12.6-5.2-18.1c-2.8-3.8-6.4-4.6-10.6-4.5c-1.5,0-3,0.4-5,0.7c0.8,0.9,1.3,1.5,1.8,1.9
		c0.6,0.5,1.3,0.9,1.9,1.4c2.2,2.1,2.7,4.7,1.6,6.7c-1.3,2.2-3.8,3-6.8,2.3c-8.8-2-15.4-7.2-20.5-14.4c-2.9-4.1-6-8.3-8-12.9
		c-2.9-6.6-6.4-13.2-6.7-20.7c-0.1-1.6-0.6-3.2-1-5.4c-0.7,0.9-1.1,1.4-1.5,1.9c-0.8,1.2-1.6,2.5-2.5,3.6
		c-8,9.1-16.4,17.7-26.7,24.6c-8.5,5.7-17.5,10.1-26.3,15c-0.7,0.4-1.4,0.7-2.1,1.1C251.3,246.5,251.1,246.8,250.5,247.3z"/>
	<path d="M139.4,238.2c-3.6,4.1-7.3,6.6-11.3,8.6c-1.2,0.6-2.5,0.9-3.8,1c-1.5,0.1-2.5-0.8-3.1-2.2c-1-2.4-1.5-4.8-0.1-7.1
		c1.9-3.1,3.7-6.2,5.8-9.1c2.1-2.9,4.6-5.6,6.8-8.4c3.1-3.8,7.1-5.8,12.1-5.6c4.7,0.2,7.9,3.3,7.9,7.9c0,5.8-0.4,11.7-0.8,17.5
		c-0.6,7.8-0.4,15.5,2.5,22.9c0.2,0.6,0.6,1.2,1,2c2.2-3.3,4.2-6.4,6.4-9.3c4.9-6.7,11.3-11.9,17.7-17.1c8.4-6.9,18.2-11.6,27.5-17
		c3.3-1.9,6.6-3.9,10-5.6c3.2-1.6,6.6-3,9.8-4.4c6.4-2.9,12.1-6.9,17.7-11.2c4.5-3.4,8.9-6.9,13.4-10.3c2-1.5,4-2.9,6.7-3
		c2.5-0.1,3.6,0.9,3.5,3.4c-0.2,3.5-1.4,6.5-3.3,9.4c-2.7,4.1-6.3,7.3-10,10.5c-6.6,5.7-13.9,10.4-21.5,14.6
		c-4.4,2.4-9.1,4.4-13.5,6.9c-8.1,4.5-16.2,8.9-24,13.8c-10.9,6.8-20.5,15-26.7,26.7c-1.1,2.1-1.9,4.3-3,6.4c-1.5,3-3.7,5.1-7.3,5.1
		c-0.7,0-1.5,0.1-2-0.2c-4.1-2.4-8.3-4.4-11.3-8.3c-3.7-5-5.2-10.7-6.4-16.5C138.6,252.8,139.2,245.9,139.4,238.2z"/>
	<path d="M251,84.5c-6.8,0.2-13.5,0.2-20.3,0.5c-3.2,0.2-6.5,0.7-9.7,1.3c-6.8,1.4-13.6,2.9-20.4,4.5c-1.5,0.4-3,1-4.3,1.8
		c-3.1,1.6-6.1,3.3-9.2,5c-6.3,3.5-11.5,8.2-16.5,13.3c-6.6,6.8-13.1,13.7-19.8,20.3c-3.4,3.3-7,6.3-11.7,7.8
		c-2.1,0.7-3.9,0.7-5.6-0.9c-1.8-1.7-2.7-3.9-1.7-6.1c1-2.3,2.5-4.5,4.1-6.5c1.9-2.2,4-4.3,6.3-6.1c7.1-5.6,12.9-12.5,19.1-19
		c5.8-6.1,12.1-11.8,19.7-15.8c2.5-1.3,5-2.7,7.4-4.1c3.6-2.1,7.6-3.4,11.6-4.4c10.4-2.8,20.9-4.8,31.6-4.9
		c10.9-0.1,21.8,0.7,32.7,1.3c4.9,0.3,8.9,3.1,13,5.4c0.9,0.5,1.8,2.2,1.7,3.3c-0.1,0.8-1.6,1.9-2.6,2.1c-2.2,0.5-4.4,0.8-6.7,0.9
		c-6.2,0.1-12.4,0-18.6,0C251,84.3,251,84.4,251,84.5z"/>
	<path d="M368.5,174.5c0,6.3,0.1,12.6,0,18.9c-0.1,3.5-2.4,6.1-5.6,6.7c-3.4,0.5-6.5-1.1-7.6-4.2c-0.4-1-0.5-2.2-0.5-3.3
		c-0.2-10-0.1-20-0.6-30c-0.6-12.5-2.8-24.8-7-36.6c-1.3-3.8-2.3-7.8-3.4-11.7c-0.6-2.4,0.1-4.3,1.8-5.3c1.8-1.1,4.1-0.9,5.7,1.2
		c2.7,3.3,5.5,6.7,7.4,10.4c3.8,7.4,5.5,15.6,7.1,23.8C367.8,154.3,368.3,164.3,368.5,174.5z"/>
	<path d="M285.3,260.1c0.1-2.7,1.3-4.5,3.3-5.4c2-0.9,4.3-1.6,6.5-1.8c10-0.8,19.7,0.9,29.2,4.2c3.7,1.3,5.8,4.3,5.2,7.7
		c-0.8,4.3-4.5,6.7-8.8,5.6c-1.6-0.4-3.2-1-4.8-1.5c-7.2-2.4-14.6-2.7-22-2.4c-1,0-2,0-3-0.1C287.4,265.8,285.2,263.1,285.3,260.1z"
		/>
	<path d="M295.4,63.7c0,1,0,2,0,3c0.1,3.7,0.7,7.1,3,10.2c1.2,1.5,2.1,3.2,3,4.9c0.8,1.6,0.5,3.3-0.5,4.8c-1,1.6-2.5,1.7-4.2,1.3
		c-7.1-1.4-14-5.7-15.2-16.1c-0.6-4.6-0.7-9.2-0.7-13.8c0-4,3.3-7,7.2-7c3.9,0,7.1,2.9,7.3,6.9C295.4,59.8,295.3,61.8,295.4,63.7
		C295.3,63.7,295.3,63.7,295.4,63.7z"/>
	<path d="M116.4,159.5c5.1,0.1,10-1.2,14.8-3.1c3-1.2,6.2-2,9.4-2.7c1-0.3,2.3-0.1,3.3,0.2c2.8,0.9,4,3.5,2.7,6.2
		c-0.6,1.2-1.4,2.3-2.4,3.3c-5.9,5.6-12.8,9.1-21,9.7c-1.9,0.1-3.8,0.4-5.7,0.4c-2.7,0-5.1-0.8-7.1-2.6c-2.6-2.3-3.1-4.1-2-7.2
		c1-2.9,3.4-3.7,6.1-4C115,159.5,115.7,159.5,116.4,159.5z"/>
	<path d="M183.5,282.4c-3.4,0-6.1-1.8-6.9-4.1c-1-2.7-0.1-5.9,2.5-7.4c3.8-2.1,7.8-4,11.8-5.7c1.6-0.7,3.5-0.9,5.2-1.5
		c4.9-1.7,9.7-1.2,14.6,0.2c2.8,0.8,4.3,2.6,4.4,4.9c0.1,2.4-1.2,4.2-4,5.2c-2.5,0.9-5.1,1.6-7.8,2.1c-4.7,0.8-9.1,2.3-13.5,4.2
		C187.6,281.3,185.1,281.8,183.5,282.4z"/>
	<path d="M272.3,375.6c-1.4-0.7-3.1-1.2-4.3-2.3c-3.1-2.7-2.6-9.3,0.6-11.8c1.4-1.1,3.1-1.4,4.8-1.1c3.5,0.6,7.1,5.5,6.8,9
		C279.8,372.8,276.5,375.2,272.3,375.6z"/>
	<path d="M206.1,298.2c3.9,0.1,7.4,3.9,7.3,7.9c-0.1,3.8-3,6.8-6.6,6.8c-3.8-0.1-6.8-3.6-6.7-7.8C200.2,301,202.7,298.1,206.1,298.2
		z"/>
	<path d="M306.5,287.7c1.2,0.6,2.7,1.1,3.7,2c2.5,2.3,3.4,5.2,2.4,8.6c-1,3.5-5.5,5-8.7,3.2c-3.4-1.9-4.7-9.9-0.7-12.3
		C304.1,288.6,305.2,288.3,306.5,287.7z"/>
</g>
<pattern  id="SVGID_1_" xlink:href="#Poka_Dot_3" patternTransform="matrix(0.1477 0 0 0.1907 -6212.0649 -5718.5947)">
</pattern>
<path class="st1" d="M336.8,102.9c-5.4-4-11.1-7.4-17.1-10.2c0-1.2-0.1-2.5-0.3-3.9c-1.3-8.4-12.1-31.8-19-32.8
	c-2.5-0.4-5,1.4-6.5,4.1c-1.5,2.6-2.1,6-2.2,9.2c-0.1,5.2,0.9,10.1,2.7,14.8c-10.5-2.5-21.2-3.8-31.7-4.4
	c-25.3-1.3-51.3,1.6-74.4,12.2c-25.6,11.7-46.1,31.8-66.1,51.6c-4.4,4.4-9.2,9.8-8.3,16c0.5,3.1,2.3,5.8,3.4,8.7
	c3.5,9.4-1,19.6-3.9,29.2c-2.9,9.6-3.3,22.1,5.2,27.4c6.6,4.1,16.3,2.3,21.5,8.1c6.1,6.8,0.6,18.2,4.5,26.5c4.3,9.2,18,9.7,26.6,4.3
	c8.6-5.5,13.8-14.7,20.5-22.4c6.7-7.7,16.7-14.3,26.4-11.6c-8.1,1.5-10.9,14.3-4.1,19c5.8,4,13.7,1.4,20.1-1.5
	c27.8-13,53.1-31.4,74.1-53.8c10.4,13,20.8,26.2,28.4,41c7.6,14.8,12.3,31.6,10.3,48.1c-2.6,22.4-17.5,42.3-36.7,54.1
	c-19.2,11.8-42.3,16.3-64.8,16c-22.6-0.2-44.8-4.9-66.7-10.2c9.7,12.1,19.5,24.3,31.4,34.3s26.2,17.6,41.7,19.2
	c14.6,1.5,29.1-2.5,42.9-7.7c23.6-8.8,47.2-22.3,58.8-44.6c8.4-16.2,9.6-35.1,8.4-53.3c-1.2-18.2-4.5-36.3-4.5-54.5
	c0-19.8,4.1-39.4,5.5-59.1C364.9,148.2,360.7,120.8,336.8,102.9z"/>
</svg>
