<?xml version="1.0" encoding="UTF-8" standalone="no"?>
<svg
   xmlns:dc="http://purl.org/dc/elements/1.1/"
   xmlns:cc="http://creativecommons.org/ns#"
   xmlns:rdf="http://www.w3.org/1999/02/22-rdf-syntax-ns#"
   xmlns:svg="http://www.w3.org/2000/svg"
   xmlns="http://www.w3.org/2000/svg"
   xmlns:xlink="http://www.w3.org/1999/xlink"
   xml:space="preserve"
   style="enable-background:new 0 0 595.3 595.3;"
   viewBox="0 0 595.3 595.3"
   height="595.3px"
   width="595.3px"
   y="0px"
   x="0px"
   id="Layer_1"
   version="1.1"><metadata
   id="metadata41"><rdf:RDF><cc:Work
       rdf:about=""><dc:format>image/svg+xml</dc:format><dc:type
         rdf:resource="http://purl.org/dc/dcmitype/StillImage" /><dc:title></dc:title></cc:Work></rdf:RDF></metadata><defs
   id="defs39" />
<style
   id="style2"
   type="text/css">
	.st0{fill:none;}
	.st1{fill:url(#SVGID_1_);}
</style>
<pattern
   style="overflow:visible;"
   viewBox="0 -34 34 34"
   id="Poka_Dot_3"
   patternUnits="userSpaceOnUse"
   height="34"
   width="34">
	<g
   id="g8">
		<rect
   id="rect4"
   height="34"
   width="34"
   class="st0"
   y="-34" />
		<circle
   id="circle6"
   r="8.5"
   cy="-17"
   cx="17" />
	</g>
</pattern>
<g
   id="g31">
	<path
   id="path11"
   d="M306.5,370.9c-1.5,1.6-3,3-4.3,4.6c-8.9,11.5-17.8,23-26.5,34.7c-4.7,6.3-9.2,12.8-13.8,19.3c-3.1,4.3-7.4,7.2-11.7,10   c-1.3,0.8-3,0.9-4.9,1.5c4.1,6.2,8.2,12.4,13.2,18c12.6,13.9,28.1,23.5,45.2,30.7c5,2.1,10.3,3.3,15.6,4.4   c8.3,1.7,16.7,3.3,25.1,4.2c6.1,0.7,12.3,0,18.4,0.1c2.1,0,4.2,0.4,6.2,1c2.4,0.7,3,2.8,1.3,4.6c-1.6,1.7-3.4,3.1-5.3,4.5   c-4.7,3.5-10.1,4.6-15.8,5.4c-12.3,1.8-24.2,0.3-36.2-2.5c-12.5-2.9-24-7.9-35.1-14.2c-11.7-6.7-22.3-14.8-31.6-24.7   c-1-1.1-1.8-2.3-2.6-3.6c-5.4-9.4-11.1-18.7-16.1-28.3c-2.3-4.4-5.8-6-10.1-6c-7.3-0.1-14.5,0.4-21.8,0.6c-3.3,0.1-6.6-0.1-10,0.2   c-8.7,0.6-17.4,1.3-26.1,2c-5.3,0.4-10.6,0.9-15.8,1.3c-8.9,0.8-17.4,3.3-25.6,6.9c-3.4,1.5-6.8,2.9-10,4.7   c-6,3.4-12,6.8-17.6,10.8c-6.2,4.4-12,9.5-17.9,14.2c-1.3,1.1-2.8,2.1-4.3,2.7c-3.3,1.3-6.1,0.6-8-1.8c-1.8-2.3-2-6.1,0-8.6   c1.5-1.9,3.2-3.8,5.2-5.2c8-5.6,16.1-11,24.1-16.4c3.4-2.3,6.8-4.5,10.1-6.8c5.2-3.5,11.2-5,16.9-7.3c9-3.7,18.6-5.6,28.1-7.5   c5.1-1,10.1-2.4,15.1-3.4c3-0.6,6.1-0.7,9.2-1c10.6-1,21.2-0.8,31.7-0.6c7.6,0.1,15.2,0.5,22.8,0.5c7.2,0,14.2,0.7,21.1,3.1   c0.3,0.1,0.7,0.1,1,0.2c5.3-4.6,9.5-10,13.5-15.7c5.3-7.7,11.2-15,16.8-22.5c7.1-9.5,14.1-19,21.3-28.7c-3.8-3.5-4.7-8.3-7.3-12.2   c-3.5-5.2-5.8-11.3-6.3-17.6c-1.2-14.6-1.4-29.3,0.3-43.9c0.5-4,1-8.1,1.5-12.1c0.1-0.9-0.1-1.9-0.2-3c-1.2-0.3-2.2-0.7-3.3-0.9   c-5.9-1.1-10.7-4.1-14.4-8.8c-1.5-1.9-3.3-3.7-4.5-5.9c-5.5-10.5-4.6-24.1,3.9-33.4c3.1-3.4,6.9-6.3,11.5-7.1   c4.5-0.7,9.1-0.2,13.5,1.5c4.9,1.9,8.2,5.2,10.1,10.1c0.5,1.2,0.8,2.4-0.2,3.5c-1,1.1-2.2,1.5-3.7,1.1c-1-0.3-2.1-0.8-3.1-1.3   c-3.9-1.9-7.9-2.6-12.2-2.1c-1,0.1-2.2,0.6-3,1.2c-6.1,5.2-7.2,15-2.2,20.9c3.6,4.2,7.7,6.2,13.2,5.6c3.5-0.4,6.4,2.6,6.6,6.5   c0.1,4.1,0.2,8.1,0.1,12.2c-0.2,10-0.5,20-0.6,29.9c-0.1,6.6,0.2,13.3,0.2,19.9c0,5.1,1.8,9.6,3.7,14.2c3.1,7.4,6.8,14.5,11.7,20.9   c3.5,4.6,7.7,8.6,11.6,12.9c1.8,2,3.8,3.9,5.5,6c0.8,1,1.4,2.3,2,3.4c1.1,2,0.6,3.8-1,5.3c-1.6,1.4-3.5,1.9-5.4,0.9   c-3.2-1.8-6.6-3.4-9.6-5.5c-2.3-1.6-4.3-3.7-6.4-5.6C308.5,372.4,307.7,371.9,306.5,370.9z" />
	<path
   id="path13"
   d="M435.7,229.5c-0.5,4.2-0.9,8-1.4,11.7c-1.2,9-2.2,18.1-3.6,27.1c-1.3,8.3-3,16.4-4.5,24.7c-0.5,2.8-0.5,5.7-1.2,8.4   c-1.4,5.9-3,11.7-4.8,17.4c-1.3,4.4-5.4,7.2-10,7.6c-4.7,0.4-9-0.7-13.2-2.9c-1.7-0.9-3.7-1.3-5.6-1.6c-3.3-0.4-6.2-1.7-8.8-3.6   c-1.3-1-2.6-2.4-3.2-3.9c-1.9-4.4,0.9-8.6,5.7-8.8c0.6,0,1.2,0,1.8,0.1c5.7,1.4,11.4,2.7,17.6,4.2c1.3-3.2,2.4-7,3.1-10.7   c2.4-13.1,4.7-26.2,6.9-39.3c1.9-11.4,3.8-22.8,5.5-34.3c0.4-2.8-0.2-5.3-2.8-7.3c-6.1-4.6-12-9.5-17.7-14.5   c-5.1-4.5-9.6-9.5-13.2-15.3c-3.8-6.1-7.9-11.9-11.8-17.9c-1.5-2.4-2.9-4.8-4.7-7.9c-4.5,10-10.9,18.4-18.6,26.3   c1.1,0.2,1.7,0.4,2.3,0.4c4.2-0.2,8.4-0.5,12.5-0.7c5.6-0.3,9.4,3.8,8.9,9.3c-0.4,3.4-2.3,5.6-5.5,6.7c-1,0.4-2.2,0.5-3.3,0.5   c-7.6,0.1-15.2,0.2-22.9,0.3c-0.7,0-1.5,0.2-2.2-0.1c-5-1.7-8.4,0.7-11.7,3.9c-2,2-4.4,3.5-6.5,5.4c-2.4,2.2-5.4,2.9-8.4,3.7   c-1.4,0.4-3.2,0.1-4.6-0.5c-3.1-1.3-4.2-5.1-2-7.6c3.6-4,7.4-7.9,11.4-11.6c10.2-9.2,20.5-18.2,29.6-28.3c5.4-6,9.6-12.8,13.5-19.8   c1.1-2,2.5-4,4.1-5.7c3.8-3.9,6.9-3.7,10.4,0.8c1.9,2.4,3.1,5.3,4.9,7.8c5,7.3,9.9,14.7,15.2,21.8c10.8,14.2,25,24.7,39.6,34.6   c3.7,2.5,7.5,4.7,11.3,6.9c3.3,1.9,4.7,5.3,6.4,8.4c1,1.8-0.4,3.2-2.9,4.2c-4.7,1.9-9.4,1.3-14.1,0.2   C437.2,229.8,436.7,229.7,435.7,229.5z" />
	<path
   id="path15"
   d="M383,478.3c17,3.9,32.4,10.1,46.8,18.4c4.1,2.4,8,5.3,11.9,8c4.2,3,4,7.4,3.4,11.7c-0.4,2.5-2.7,3.5-5.2,2.3   c-3.6-1.6-7.2-3.3-10.5-5.3c-13.6-8.2-27.7-14.8-43-19.3c-5.6-1.7-10.9-4.5-16.3-7c-3-1.4-4-3.8-2.8-7c2.2-5.9,4.3-11.7,7.6-17.2   c8.1-13.6,16-27.5,23.9-41.2c3.5-6.1,6.7-12.3,10.1-18.4c1.9-3.4,4.5-6.2,8.5-7.2c0.2-0.1,0.5-0.2,0.7-0.3c9-5.5,18.3-10.7,26.1-18   c9.3-8.7,16.3-19,20.9-30.9c2.4-6.2,5.4-12.2,7.6-18.4c2.2-6.3,4-12.7,5.5-19.2c2.8-12.2,5.3-24.5,7.9-36.8   c0.5-2.4,0.5-4.9,1.2-7.3c0.8-2.7,1.7-5.4,3.1-7.8c2.2-3.6,7.1-3.2,9,0.5c2.2,4.4,2,9.1,1.4,13.8c-1.6,13.7-4.5,27.2-7.4,40.7   c-3.2,14.8-7.7,29-13.8,42.8c-1.3,2.9-2.3,6-3.4,9c-3.6,9.5-9.9,16.9-17.4,23.5c-8,7-16.6,13.1-26.2,17.7c-1.9,0.9-3.8,1.6-5.8,2.3   c-3.5,1.2-6.2,3.3-8,6.6c-3.2,5.7-6.6,11.3-9.8,17c-3.9,6.8-7.8,13.7-11.6,20.6c-3.3,6-6.4,12.2-9.7,18.2   C386.2,472.7,384.7,475.3,383,478.3z" />
	<path
   id="path17"
   d="M529.6,180.1c2.3,3.5,4.3,6.6,6.4,9.7c7.6,11.1,9.4,23.6,8.6,36.7c-0.5,7.9-1.3,15.7-2.3,23.5c-0.7,5.6-2.6,11-6.2,15.6   c-2.7,3.3-5.8,4.5-10.8,1.2c-3.3-2.1-6.2-4.9-8.9-7.7c-5.8-6-11.4-12.3-17.1-18.4c-5.8-6.3-13.1-10.8-20-15.7   c-9.1-6.5-18.1-13.2-27.1-19.8c-4-2.9-8.1-5.6-12-8.6c-2.4-1.8-4.6-3.7-6.7-5.8c-4.6-4.5-9.1-9-13.6-13.6   c-3.9-3.9-6.8-8.5-8.7-13.6c-0.3-0.9-0.5-1.9-0.4-2.9c0.1-1.8,1-2.6,2.6-2c2.3,0.8,4.7,1.7,6.6,3.2c6.7,5,13.1,10.5,19.9,15.3   c6,4.2,12.5,7.8,18.8,11.6c4.6,2.8,9.3,5.4,13.8,8.4c6.6,4.3,12.9,9,19.5,13.3c8,5.2,15.1,11.5,22,18c2,1.9,3.5,4.4,5.3,6.6   c2,2.5,4.1,5,6.2,7.3c0.6,0.6,1.7,1.4,2.2,1.2c0.7-0.3,1.3-1.4,1.5-2.3c0.3-1,0.3-2.2,0.3-3.3c0.7-11.7,0.6-23.4-3.2-34.7   c-2.2-6.6-6.4-11.9-10.2-17.4c-1.8-2.6-4.1-4.8-5-8.1c-1.2-4.9-0.5-8.1,3.8-10.8c6.4-4,12.8-8.3,20.6-9.5c3.8-0.6,5.8,1.3,7.8,3.8   c1.8,2.4,2.4,4.9,1.2,7.9c-1.9,4.7-5.9,6.7-10,8.8C533.1,178.8,531.5,179.3,529.6,180.1z" />
	<path
   id="path19"
   d="M353.1,75.1c11.6-6.9,22.9-12.7,35.7-15.3c7.9-1.6,15.8-2.3,23.8-1.4c7.1,0.8,14.2,1.6,21.3,2.3c6.3,0.6,12.2,2.7,18.2,4.6   c13.2,4,25,10.9,37.3,16.8c1.2,0.6,2.5,1.1,3.8,1.5c2.4,0.8,5,1.4,7.4,2.4c4.7,2,9.5,2.4,14.4,0.9c4.1-1.3,8.1,0.5,9.4,3.1   c1.6,3,0.3,7.2-3.2,9.7c-1.3,0.9-2.8,1.6-4.3,2c-7.5,1.9-14.9,1.2-22-1.9c-0.6-0.2-1.1-0.6-1.7-0.7c-10.9-2.7-20.3-8.8-30.4-13.2   c-12.1-5.4-24.4-9.9-37.7-11c-7.1-0.6-14.2-1.7-21.3-1.6c-5.9,0-11.8,1.1-17.5,2.2c-5,1-10,2.7-14.9,4.1c-0.2,0.1-0.5,0.1-0.7,0.3   c-6.2,4.5-13.8,7.2-19,13.3c-2.3,2.8-5.5,3.7-9,2.7c-3.9-1.1-6.3-3.9-7.1-7.7c-0.9-4.1-1.5-8.2-1.9-12.4c-0.6-7,4.7-12.1,11-10.9   c3.9,0.7,6.2,3.3,7.5,6.9C352.5,72.5,352.7,73.7,353.1,75.1z" />
	<path
   id="path21"
   d="M280.6,173.7c-0.4-7.7,0-15.3,2.3-22.6c3.4-10.6,7.2-21,15.3-29.1c3.2-3.2,7.1-5.2,11.3-6.9c0.8-0.3,1.7-0.3,2.6-0.4   c2.1-0.1,4.1,0.2,5,2.3c0.9,2,0.4,3.9-0.9,5.5c-2.4,3-5,5.8-7.4,8.7c-4.1,4.8-6.5,10.3-7.1,16.7c-0.3,3.6-1.6,7.2-2.1,10.8   c-0.6,4-1,8-1.1,12.1c-0.1,6,0.3,12,0.5,18c0,1.1,0.2,2.2,0.4,3.3c0.1,0.6,0.2,1.2,0.3,1.8c0.3,5.1-2.9,9.8-7,10.3   c-5,0.7-9.8-2.8-10.5-8.2c-0.8-6.1-1-12.2-1.5-18.4C280.6,176.4,280.6,175.1,280.6,173.7z" />
	<path
   id="path23"
   d="M514.9,143.1c-2.1-0.1-3.7,0-5.3-0.3c-2.6-0.5-4.6-1.9-5.3-4.5c-0.7-2.7,0.6-4.8,2.7-6.4c1.1-0.8,2.3-1.4,3.6-1.9   c8.9-3.8,17.9-7.5,26.9-11.2c1.2-0.5,2.4-1.2,3.6-1.9c4.5-2.5,9.7-1.8,11.9,1.8c2.3,3.7,1,9.1-3.5,11.8c-3.4,2.1-7.1,4-10.8,5.5   c-5.9,2.4-12,4.4-18.1,6.4C518.6,142.9,516.4,142.9,514.9,143.1z" />
	<path
   id="path25"
   d="M392.7,361.1c0.2-2.3,0.3-4,0.5-5.7c0.6-5.7,6.3-8.2,11-4.8c3.1,2.3,4.4,5.8,4.9,9.6c0.1,0.8,0,1.7,0,2.6   c-0.1,4.6-2.2,6.8-7.3,7.6c-3.5,0.5-7.4-1.7-8.5-5.1C392.8,363.8,392.8,362.2,392.7,361.1z" />
	<path
   id="path27"
   d="M352.2,242.4c0,5.1-5.3,8.7-10,6.7c-6.8-2.8-8.4-11-3.4-16.4c1.6-1.8,3.6-2.1,6-1.2C349.8,233.2,351.8,237.8,352.2,242.4z" />
	<path
   id="path29"
   d="M464,260c-0.7,3.9-0.4,7.3-4.1,9.3c-3.9,2.1-7.8,1.3-9.9-2.7c-1.8-3.5-2.5-7.1-1.4-11c0.7-2.6,3.1-4.3,5.6-3.5   c2.5,0.9,5.1,2,7.1,3.6C462.7,256.8,463.3,258.9,464,260z" />
</g>
<pattern
   patternTransform="matrix(0.2101 0 0 0.2101 -5562.6099 -5562.4819)"
   xlink:href="#Poka_Dot_3"
   id="SVGID_1_">
</pattern>
<path
   id="path34"
   d="M532,205c-4.3-8.9-11-18.5-7.3-27.7c3.1-7.6,17.9-8,18.7-16.1c1.8-18.7-10.5-15.2-11.5-21.1  c-0.9-5.6,7.3-4.4,2.4-16.7c-5.3-13.2-23.3-12.2-30.3-17.3c-7-5.1,3.2-12.3-5-14.8c-9.6-2.9-19.3-5.9-29.2-7.9  c-3.3-7.6-9-14.2-16.5-17.8c-9-4.3-19.4-4.4-29.4-4.5c-12.5,0-25-0.1-37.5-0.1c-7.9,0-16.4,12.4-23,16.8c-5.9,3.9-9.2,4.2-12.6,6.9  c-2.8-5.1-6.6-9.2-11.7-10c-4-0.6-8.3,0.7-11.2,3.6c-4.1,4-5.1,10.1-5.2,15.8c-0.1,5.7,0.4,11.5-1.4,16.9c-0.2,0.7-0.5,1.3-0.8,2  c-3.6,2.8-7,5.7-10.1,9c-10,10.7-15.6,25-18,39.5c-2.4,14.5-1.8,29.3-0.8,43.9c0.3,4.7,1,9.9,4.6,12.9c0.6,0.5,1.2,0.8,2,1  c-1.4,2.2-1.2,4.1-1.5,5.9c-4.1,20.9-6.3,52.9-6.1,74.2c0.2,21.3,4.5,43,15.7,61.2c15.7,25.7,44.9,42.6,75,43.4  c30.1,0.8,60.2-14.6,77.1-39.5c3.2-4.6,12.1-10.7,9.5-15.6c-2.4-4.5-14.4-5.8-19.4-6.7c-24-4-48-7.9-72-11.9  c-16.5-2.7-33.7-5.8-46.7-16.3c-13.7-11.1-20.4-29-21.7-46.6c-1-13.6,2.9-27.3,3.5-41.1c0.1-2,0.9-7.5,0.7-11.4  c8.6-5.2,17.7-13.5,21-16.4c12.4-11.1,22.6-24.6,29.6-39.7c2.4-5.1,7.8-12.2,12.9-10.5l4.5,6.9c0.2,0.8,0.3,1.6,0.6,2.4  c0.1,1.9,0.2,3.7,0.8,5.1c1.9,4.6,5.9,9.2,8.7,13.3c11.7,16.9,25.2,33.1,43.1,43.7c6.3,3.7,14.8,6.3,21,3.7c0.2,0.1,0.4,0.2,0.6,0.2  c3.7,1.5,7.5,2.9,11.5,2.8c4-0.1,8.2-2,9.8-5.7c1.4-3,0.7-6.6-1-9.4c3.1,1.1,6.2,3.1,8.7,5.1c10.3,8.3,19.7,17.7,27.9,28  c4.1,5.2,9.6,11.2,16,9.7c5.4-1.3,8-7.4,9-12.9C539.2,229.3,537.5,216.3,532,205z"
   class="st1" />
</svg>