<?xml version="1.0" encoding="utf-8"?>
<!-- Generator: Adobe Illustrator 21.1.0, SVG Export Plug-In . SVG Version: 6.00 Build 0)  -->
<svg version="1.1" id="Layer_1" xmlns="http://www.w3.org/2000/svg" xmlns:xlink="http://www.w3.org/1999/xlink" x="0px" y="0px"
	 width="595.3px" height="595.3px" viewBox="0 0 595.3 595.3" style="enable-background:new 0 0 595.3 595.3;" xml:space="preserve"
	>
<style type="text/css">
	.st0{fill:none;}
	.st1{fill:url(#SVGID_1_);}
</style>
<defs id="defs">
<pattern  width="5" height="5" patternUnits="userSpaceOnUse" id="Poka_Dot_3" viewBox="0 -34 34 34" style="overflow:visible;">
	<g>
		<rect y="-34" class="st0" width="34" height="34"/>
		<circle cx="17" cy="-17" r="8.5"/>
	</g>
</pattern>
</defs>
<g>
	<path d="M209.3,459.2c-2.6-12.4-5.1-24.3-7.8-36.2c-2.4-10.7-5.1-21.3-7.5-32c-1.5-6.9-2.6-13.8-3.9-20.7c-0.1-0.7-0.3-1.3-0.4-2
		c-0.3-3.6-2.3-6.1-5.3-8.1c-13.8-9.2-23.7-21.7-31.3-36.1c-2-3.7-3-8-4.6-11.9c-3.1-7.7-3.5-15.9-4-24.1c-0.5-7.3-0.8-14.5-1.2-22
		c-2.7-0.7-5.5-1.4-8.2-2.3c-7-2.5-12.6-6.7-15.7-13.6c-2.3-4.9-1.7-10.1-0.7-15.2c0.6-3.5,1.4-7,3.6-10c4.4-6.1,10-9.7,17.7-10
		c0.4,0,0.9-0.1,1.6-0.2c0.3-2.4,0.7-4.8,0.9-7.3c0.3-2.9,2.3-4.6,4.2-6.2c1-0.9,2.4-0.8,3.4,0.2c1.9,2,3.7,4.2,3.5,7.3
		c-0.4,5.4-0.7,10.7-1.1,16.1c-0.1,2-1.8,3.4-4.3,3.3c-1.9-0.1-3.7-0.5-5.6-0.9c-3.9-0.6-8.8,2-10,5.7c-0.9,3.1-1.4,6.3-1.8,9.5
		c-0.3,2.2,0.7,4.1,2.4,5.7c3,2.9,6.7,4.2,10.7,5.2c1.5,0.4,3,0.8,4.4,1.5c3.9,1.9,4.7,5.6,4.9,9.3c0.5,9.5,1.2,19,3.4,28.3
		c1.3,5.6,3.6,11,5.3,16.6c2.7,9.1,7.3,17.1,13.5,24.1c2,2.2,4.3,4.2,6.6,6.1c2.1,1.7,4.3,3.3,6.4,4.8c4.1,3,8.8,4.8,13.5,6.5
		c3.9,1.4,7.9,2.5,11.8,3.7c2.2,0.7,4.5,1.2,6.8,1.9c2.9,0.9,5.7,1.9,8.5,3c2,0.8,3,3.3,2.6,5.3c-0.5,2.3-2.2,3.9-4.6,4.2
		c-6.1,1-12-0.2-18-0.9c-2.9-0.3-3.4,0-3.1,2.9c0.5,4.4,0.9,8.9,1.8,13.3c2.1,9.7,4.4,19.4,6.6,29.1c2.5,11.2,4.9,22.5,7.4,33.7
		c0.3,1.3,0.5,2.7,1,3.9c1,2.4,0.8,4.8,0.7,7.3c-0.2,2.8-1,5-3.7,6.3c-0.6,0.3-1.2,1-1.5,1.6c-0.9,1.8-1.6,3.6-2.5,5.9
		c0.3,1.2,1.4,2.4,3,3.1c1.8,0.9,3.6,1.9,5.4,2.6c13.1,4.8,26.6,7.5,40.5,4.5c14.7-3.2,29.6-6.4,42.9-13.9
		c8.2-4.6,16.1-9.8,22.1-17.3c0.3-0.4,0.7-0.9,1-1.4c1.4-2.9,2.9-5.8,4.2-8.4c-2.2-3.1-4.5-6.2-6.5-9.5c-0.8-1.3-0.7-3-1.1-4.5
		c-0.9-4-1.7-8.1-2.6-12.1c-2.4-10.1-4.6-20.3-7.3-30.3c-2.7-10-5.8-20-8.7-29.9c-1.1-3.8-2.2-7.5-3.3-11.2
		c-0.3-1.2-0.4-2.5-1.1-3.5c-2.3-3.7-0.9-7,1-10.3c1.8-3.2,4.3-6,7-8.5c5.9-5.4,9.1-12.4,11.7-19.7c1.8-5.2,3.3-10.4,4.9-15.7
		c0.5-1.5,0.7-3,1.2-4.5c0.7-2.3,1.4-4.7,2.2-7c0.7-2.1,1.7-4.1,2.3-6.3c1-3.7,3.3-6,6.8-7.2c2.3-0.8,4.6-1.7,6.2-3.8
		c3-3.8,4.1-8,3.4-12.9c-0.9-6.4-4.7-10.4-10.1-13.3c-0.7-0.4-1.5-0.3-2.3-0.5c-1.2-0.3-2.5-0.3-3.6-0.9c-1.1-0.6-2.6-1.6-2.7-2.6
		c-0.1-1,1-2.7,1.9-3.1c2.5-1.2,3.5-3.3,4.6-5.5c3.6-7.1,5.1-14.7,5.4-22.7c0.5-11,0.2-21.9-1.4-32.8c-1-6.8-3.4-13.2-6.8-19.2
		c-1.7-2.9-2.2-5.8-2.2-9c0-2.8,1.5-5,3.8-5.8c2.5-0.9,4.6-0.1,6.5,1.6c3.6,3.2,5.9,7.3,7.8,11.6c2.7,6.2,4.7,12.6,5.9,19.2
		c0.1,0.8,0.2,1.6,0.1,2.3c-0.8,9.5-1.1,19-1.3,28.4c-0.2,7.5-1.2,15-3.8,22.1c-1,2.9-2.6,5.7-4.2,8.9c1.3,0.9,2.8,2.2,4.4,3
		c2.1,1.1,3.6,2.7,4.7,4.7c5.8,10.2,6.5,21.9-1.1,32.5c-3.6,4.9-7.9,8.7-13.8,11c-0.5,4-1,8-1.5,12c-1.1,9.5-3.1,18.8-6.2,27.8
		c-2.8,7.9-7.9,14.2-13.9,19.9c-0.3,0.3-0.7,0.6-1.3,1.2c1.5,5.1,2.9,10.4,4.6,15.5c4.8,14.2,8.4,28.7,12.1,43.2
		c1.3,5.3,3.2,10.4,4.8,15.6c1.6,5.5,3.1,10.9,4.7,16.6c7-1.5,14.1-1.3,21.2-0.4c9.4,1.2,18.8,2.6,28,4.8
		c17.4,4.2,34.6,8.9,51.8,13.8c17.4,4.9,34.6,10.6,51.1,18.1c4.3,1.9,8.5,4,12.7,6.1c3.2,1.6,5,4.5,6.4,7.5c1.2,2.8,0,6.2-2.4,8.2
		c-2.7,2.2-6.7,2.3-9.8,0.5c-2.9-1.8-5.7-4-8.9-5.3c-9.4-4.1-18.8-8.3-28.5-11.6c-22.2-7.6-45-13.2-67.6-19.2
		c-10.2-2.7-20.8-4.4-31.2-6.2c-3.8-0.7-7.8-0.6-11.7-0.8c-1.6-0.1-2.7,0.4-3.6,1.9c-1.6,2.7-3,5.4-4.4,8.2
		c-1.8,3.7-4.3,7.1-6.9,10.2c-5.7,6.8-13,11.9-20.5,16.5c-11.6,7.1-24.1,11.6-37.3,14.7c-5,1.2-10,2.6-15,3.5
		c-12.7,2.2-25.4,1.6-37.9-1.6c-9.9-2.6-19.5-5.9-28.8-10.1c-2.9-1.3-5.4-1.3-8.2,0.5c-9,5.7-18.2,11.1-26.1,18.2
		c-3.3,3-6.3,6.4-9.1,9.9c-2.9,3.6-7,4.9-10.5,2.6c-3.5-2.3-4.7-7.4-2.3-11c2-3,4.4-5.9,6.9-8.6c7-7.2,15.4-12.6,23.7-18
		c1.9-1.2,3.7-2.4,5.7-3.7c-0.5-1.1-1-1.9-1.4-2.8c-1.7-4.3,0.8-8.4,5.4-8.3c2.5,0,5.1,0.7,7.5,1.4c2.2,0.6,4,0.7,6-0.6
		C203.2,462.3,206.3,460.8,209.3,459.2z"/>
	<path d="M228.2,164c-2.4,0-4.9-0.1-7.3,0c-13.6,0.7-25.7-3.7-37.1-10.7c-3.6-2.2-7.1-4.6-10.6-7.1c-1.3-0.9-2.5-2-3.5-3.1
		c-2.3-2.8-2.2-6.3,0.3-8.8c2.3-2.3,5.8-2.7,8.6-0.6c9.9,7.5,21.3,10.6,33.3,12.2c11.8,1.6,23.4,0.4,34.9-2.8
		c6.1-1.8,12.3-3.3,18.5-4.9c3.7-0.9,7.3-1.8,11-2.7c3.4-0.7,5.6,0.8,7.7,3.4c4.3,5.4,6.1,11.9,8.8,17.9c4.3,9.6,10.4,18,17.6,25.6
		c3.2,3.4,7,6.2,10.7,9.1c1.6,1.3,2.2,2.8,1.8,4.7c-0.3,1.8-1.6,2.6-3.3,2.9c-2.2,0.4-4.5,0.7-6.6-0.4c-3.7-2.1-7.4-4.2-11-6.3
		c-0.6-0.3-1.1-0.8-1.4-1.4c-1.9-3.7-5.1-5.6-9-7c-6.1-2.2-12.3-4.2-18.9-3.6c-1.6,0.1-3.1,0.4-4.6,0.7c-4.1,0.9-7.6-1-8.5-4.6
		c-1-3.8,1.2-7.2,5.4-8.3c5.4-1.4,10.9-1.1,16.3-0.7c0.4,0,0.9,0,1.5,0.1c-2.1-5.3-4.1-10.5-6.2-15.9c-10.2,5.2-21.1,8-32.5,10.2
		c-0.4,3.4-0.8,6.7-1.2,10c-0.9,7.5-2,15.1-2.8,22.6c-0.4,4.4-0.4,8.9-0.6,13.4c-0.3,6.8-0.8,13.6-1,20.4
		c-0.2,7.8-0.1,15.7-0.1,23.5c0,1.5,0,3.1,0,5.1c2.4,0,4.4-0.1,6.4,0c4.2,0.2,7.2,3,7.8,7c0.6,4-1.4,7.5-5,8.9
		c-0.6,0.2-1.3,0.5-1.9,0.5c-5.4,0-10.7,0.3-15.9-1.9c-3.1-1.3-5.3-3.3-5.4-6.6c-0.3-5.7-0.3-11.4-0.3-17.1c0-7.9,0.3-15.9,0.1-23.8
		c-0.1-5.2-1-10.5-1-15.7c0.1-14.1,1.2-28.2,4.8-41.9c0.1-0.5,0.3-1.1,0.3-1.6C228.4,164.5,228.3,164.3,228.2,164z"/>
	<path d="M111.5,126.4c2.1,4.6,3.4,9,6.5,12.6c3.3,3.9,6.2,8.2,9.6,12.1c4.4,5,9.4,9.2,15.5,12.1c3.2,1.5,6.3,3.4,9.6,4.8
		c3,1.3,6.1,2.3,9.2,3.2c0.7,0.2,1.7-0.1,2.5-0.4c10.1-3.7,20.6-4.1,31.1-3.4c1.4,0.1,2.9,0.5,4.2,0.9c3.6,1.1,5.4,4.3,4.4,7.9
		c-0.8,3.1-4,5-7.4,4.3c-8.3-1.7-16.5-0.9-24.6,0.7c-5.8,1.1-10.7,4.4-15.8,7.2c-0.3,0.2-0.6,0.4-0.8,0.6c-1.5,1-3,1.6-4.7,0.6
		c-1.7-1-1.9-2.7-1.6-4.4c0.1-0.4,0.1-0.9,0.2-1.3c-4-1.8-8-3.5-11.8-5.5c-4.2-2.1-8.5-4-12.1-7.1c-4.7-4-9.2-8-13.1-12.9
		c-5.6-7.1-10.2-14.7-13.8-22.9c-2.1-4.9-3.5-10.2-4.4-15.4c-1-5.6,1.5-8.7,7-9.9c2.8-0.6,5.7-0.7,8.6-0.8c4.3-0.1,8.5-0.1,12.8,0
		c4.4,0.1,8.7,0.5,13.1,0.7c0.6,0,1.3-0.1,2.8-0.3c-1.8-1.2-3-1.8-4.1-2.6c-4.8-3.5-9.6-7-14.2-10.6c-1.5-1.2-2.7-3-3.7-4.7
		c-1.4-2.3-1.2-4.9,0.3-6.5c1.6-1.8,3.9-2.4,6.4-1c3.4,1.9,6.7,4,9.9,6.2c2,1.3,3.8,2.7,5.7,4.1c5.1,3.7,11.1,4.6,17,5.7
		c4.3,0.8,8.6,1.5,12.9,2.1c2.4,0.3,4.9,0.4,7.3,0.7c1.4,0.2,2.9,0.4,4.2,0.9c3.2,1.4,3.6,4.9,0.7,6.9c-2.1,1.5-4.3,3-6.7,3.7
		c-9.9,3-19.9,6-29.9,8.6c-9.1,2.3-18.3,4.4-27.8,3.8C115,126.6,113.6,126.5,111.5,126.4z"/>
	<path d="M245.5,75.4c-12.4-0.4-24,1.9-35.5,4.6c-11.6,2.7-23.3,4.5-35.1,5.6c-6.1,0.5-12.1-0.1-17.7-2.8c-4.5-2.1-7.7-5.4-9.6-9.8
		c-1-2.3-0.8-4.7,1.1-6.5c1.9-1.9,4.2-2.6,6.7-1.5c1.8,0.8,3.7,1.7,5.3,2.9c3.7,2.6,7.8,3.4,12.1,3.1c10.7-0.9,21.3-2.4,31.8-4.8
		c9-2.1,18.1-4.3,27.4-4.8c12.1-0.7,24.2-0.4,35.9,3.2c5.9,1.8,11.7,3.9,17.5,5.8c0.7,0.2,1.5,0.6,2.1,1c4.8,2.6,9.6,5.2,14.4,7.9
		c6,3.4,11.5,7.3,16,12.6c0.9,1.1,2,1.6,3.5,1.5c2.6-0.1,5.1-0.2,7.7,0.1c7.6,1,15.3,2.3,22.9,3.3c3.2,0.4,5.9,1.9,8.5,3.7
		c3,2.1,3.9,5.9,2.4,8.9c-1.6,3.2-4.9,4.4-8.5,3.4c-3.2-0.9-6.5-1.5-9.8-2.1c-3.3-0.6-6.6-1.2-9.9-1.7c-2.6-0.4-5.3-0.7-7.9-0.9
		c-3.3-0.2-6-1.6-8.6-3.4c-5.3-3.7-10.6-7.4-15.8-11.3c-4.5-3.4-9.5-6-14.7-8c-8.1-3.1-16.4-6-24.7-8.4c-4.1-1.2-8.6-1.1-12.9-1.5
		C248.3,75.3,246.7,75.4,245.5,75.4z"/>
	<path d="M237,316.5c-3.7,0-6.5-2-7.2-5.2c-0.8-3.9,0.8-7.4,4.5-8.7c3.4-1.2,6.9-1.8,10.3-2.8c2.8-0.8,5.6-1.6,8.2-2.7
		c3.9-1.7,7.9-0.9,9.7,2.3c1.8,3.2,0.7,7.4-2.6,9.8C253.1,314.1,245.2,315.6,237,316.5z"/>
	<path d="M280.4,224.6c-4.9-0.3-9-4.4-8.8-8.8c0.2-5,3.9-8.9,8.4-8.7c4.9,0.2,9.2,4.3,8.6,8.9C287.9,221.9,285.3,224.6,280.4,224.6z
		"/>
	<path d="M173.8,212.7c0.1-6.2,3-7.6,7.9-7.7c5.1,0,7.8,3.1,7.5,8.1c-0.3,4.9-2.9,6.7-8.3,7.1C177.4,220.6,173.1,216.6,173.8,212.7z
		"/>
</g>
<path class="st1" style="fill:url(#Poka_Dot_3)" d="M140,64.8c-9-0.6-19.2,6.4-18.2,15.4c0.9,8.5,10,13.2,18.1,16c8,2.8,17.3,6.6,19.5,14.8
	c-17.3,5.2-35.5,7.6-53.6,7.1c2.8,28,28.6,51.9,56.7,52.5c18.3,0.4,35.6-7.8,53.3-12.2c9.7-2.4,19.7-3.7,29.7-5
	c9.7-1.3,19.8-2.5,29,0.8c9.7,3.4,17.1,11.1,24,18.6c9.5,10.2,19.4,21,23.2,34.4c3.2,11.1,1.8,23-0.2,34.4
	c-1.9,10.3-4.7,21.1-12.1,28.5c-7.8,7.8-19.3,10.5-30.3,12.1c-21.4,3.2-43.1,3.8-64.6,2c-18.6-1.6-37.9-5.6-52.2-17.6
	c-14.3-12-13.2-28.5-11.5-50c-2.1,24.8-4.2,49.9,0.7,74.3s17.6,48.3,39,60.9c16.5,9.7,36.6,11.9,55.6,9.6
	c27-3.2,53.7-15.8,69.9-37.6c15.3-20.7,19.9-47.2,24-72.6c6.1-37.6,17.1-75.1,1.7-117.8c7.5,4.6,21.4-5.5,21.8-14.3
	s-1.6-9.8-9.6-13.5s-16.9-4.5-25.6-6c-28-4.9-51.3-23.2-81-26.4c-18.8-2-37.7-2.8-56.5,0.7c-7.6,1.4-18.5,3.4-25.7,2.6
	C156.5,75.4,150,65.4,140,64.8z"/>
</svg>
