<?xml version="1.0" encoding="utf-8"?>
<!-- Generator: Adobe Illustrator 21.1.0, SVG Export Plug-In . SVG Version: 6.00 Build 0)  -->
<svg version="1.1" id="Layer_1" xmlns="http://www.w3.org/2000/svg" xmlns:xlink="http://www.w3.org/1999/xlink" x="0px" y="0px"
	 width="595.3px" height="595.3px" viewBox="0 0 595.3 595.3" style="enable-background:new 0 0 595.3 595.3;" xml:space="preserve"
	>
<style type="text/css">
	.st0{fill:none;}
	.st1{fill:url(#SVGID_1_);}
</style>
<defs id="defs">
<pattern  width="5" height="5" patternUnits="userSpaceOnUse" id="Poka_Dot_2" viewBox="0 -34 34 34" style="overflow:visible;">
	<g>
		<rect y="-34" class="st0" width="34" height="34"/>
		<circle cx="17" cy="-17" r="8.5"/>
	</g>
</pattern>
</defs>
<g>
	<g>
		<path d="M364.8,415.8c-3.8-1.6-7.4-3-10.8-4.7c-2.2-1-4.4-2.3-6.3-3.7c-2.4-1.8-3-4.4-2-6.9c1-2.6,3.5-4.2,6.5-3.8
			c5.1,0.7,10.2,1.8,15.3,2.3c7.3,0.8,14.6,3,22,1.5c5.4-1.1,10.7-2.7,16.1-3.9c6.5-1.4,11.8-5,17.6-8c6.3-3.3,11.4-8,16.1-13
			c4.4-4.7,8.1-10.1,11.6-15.5c6.4-9.6,10-20.5,12.9-31.5c1-3.7,1-7.7,1.4-11.5c0.5-4.2,0.9-8.4,1.5-12.6c0.2-1.1,0.7-2.2,1.3-3.2
			c1-1.8,2.6-2.6,4.7-2.4c2.1,0.2,3.6,1.4,4.2,3.3c0.8,2.8,1.4,5.7,1.7,8.6c0.8,10.5-0.5,20.6-4,30.6c-3.4,9.7-7.2,19.2-12.9,27.7
			c-3.5,5.3-7.1,10.6-11.4,15.2c-6.8,7.2-14.3,13.7-22.7,19c-2.1,1.3-4.3,2.6-6.6,3.4c-9.7,3.4-19.2,7.1-29.4,8.8
			c-1.6,0.3-3.3,0.6-4.9,0.8c-3.7,0.4-4.1,0.6-5.2,4.1c-4.8,14.9-9.5,29.8-14.3,44.7c-0.6,1.8-1,3.6-1.6,5.7
			c2.2-0.2,4.1-0.4,5.9-0.5c12.9-0.7,25.7,0.4,38.5,1.7c6.8,0.7,13.6,1.6,20.3,2.3c2.9,0.3,5.8,0.6,8.7,0.9c3.6,0.4,6.4,2.9,6.9,6.1
			c0.5,3-1.3,6.3-4.4,7.7c-3.7,1.7-7.3,2.5-11.6,1.5c-5.1-1.3-10.5-1.6-15.7-2.2c-12.2-1.2-24.4-2.3-36.6-3.3
			c-4.7-0.4-9.4-0.7-14.2-1c-0.3,0.8-0.8,1.5-0.9,2.3c-0.9,4.7-1.7,9.5-2.8,14.2c-0.3,1.3-1,2.6-1.9,3.6c-1.9,2.3-3.8,4.6-6.1,6.4
			c-2.4,1.9-5.1,3.3-7.8,4.6c-8.1,3.9-16.8,6.2-25.4,8.4c-4.3,1.1-8.9,1.4-13.3,1.4c-9.8,0-19.5-0.4-29.3-0.8
			c-6.2-0.3-12.1-2.2-17.5-5.2c-9.6-5.3-19.1-10.9-27.4-18.1c-8.9-7.6-17.3-15.7-24.1-25.2c-0.6-0.9-1.2-1.7-1.7-2.7
			c-3.8-7.2-7.5-14.4-11.5-22c-6,1.2-12.5,2.2-18.9,3.6c-23.4,5.3-46.2,12.7-68.9,20.5c-8.1,2.8-16.1,6-24.2,8.9
			c-1.5,0.5-3.3,0.8-4.8,0.6c-3.9-0.5-6.3-3-6.8-7c-0.5-3.3,1.5-7.5,4.9-9.1c4.6-2.1,9.2-4.1,14-5.8c9.6-3.5,19.2-7,28.9-10.1
			c12.8-4.1,25.6-7.9,38.5-11.4c8.7-2.4,17.6-4.3,26.5-5.8c8.6-1.5,17.2-2.4,25.9-3.5c2.2-0.3,4.4-0.4,6.9-0.7
			c4.8-10.8,11.7-20.7,15.6-32.2c2.4-7.2,5.8-14.2,8.4-21.4c5.2-14.4,10.2-28.9,15.4-43.2c3.4-9.3,7-18.5,10.5-27.7
			c0.1-0.3,0.1-0.7,0.3-1.3c-1.9-0.5-3.8-1-5.7-1.6c-2.1-0.7-4.3-1.4-6.1-2.6c-4.7-3.1-9.1-6.5-11.9-11.7c-2.1-3.9-5.2-7.4-5.9-11.9
			c-0.5-3.5-0.9-7.1-0.5-10.5c0.5-4.4,1.4-8.8,2.7-13.1c2-6.3,6.3-11,12.1-14.1c5.1-2.8,15.4-1.7,19.4,3.8c1.9,2.5,1.9,5,1.2,7.7
			c-0.2,0.8-1.7,1.9-2.6,2c-1.8,0.2-3.8,0-5.5-0.6c-5.5-1.7-7.7-0.9-10.4,4.1c-2.8,5.1-3.6,10.8-3,16.4c0.8,6.9,7,12,14.1,12.3
			c3.3,0.2,6.6,0.3,9.9,0.5c4.7,0.3,7.4,3,7,7.8c-0.3,3.8-1.2,7.7-2.2,11.4c-4.9,18.7-11,37-17.4,55.2c-3.8,10.6-7.6,21.3-11.5,31.9
			c-4.2,11.1-8.5,22.2-13,33.2c-2.3,5.6-5,10.9-7.5,16.4c-1,2.1-2.9,3.5-5.1,4c-4.9,1.1-9.9,2-14.8,3c-1.3,0.2-2.5,0.5-4.2,0.9
			c1.4,2,2.5,3.8,3.9,5.3c3.7,4.1,7.1,8.5,10.4,12.9c6.1,8.2,13.4,15.1,21.5,21.4c5.9,4.6,11.7,9.1,18.6,12c5.8,2.4,11.7,4.6,18,5.9
			c8,1.7,15.9,1.1,23.9,0.6c6.9-0.4,13.8-1.5,20.5-3.2c7-1.7,13.8-4.1,19.6-8.4c0.8-0.6,1.4-1.6,1.7-2.5c1.1-3.4,1.9-6.8,3-10.1
			c2.8-8.1,6.3-16.1,8.5-24.3c2.5-9.5,5.7-18.9,7-28.8C362.2,425.7,363.6,420.9,364.8,415.8z"/>
		<path d="M515.5,182.4c0.5,1.3,0.7,2.1,1.1,2.8c2.5,4.8,3.8,9.9,4.3,15.2c0.4,4.8,1,9.6,1.3,14.4c0.4,7.8-2,14.8-6.3,21.3
			c-2.1,3.1-4.1,6.2-7.4,8.4c-1.6,1.1-2.9,1.4-4.4,0.4c-2.9-1.9-6.1-3.7-8.5-6.2c-6.3-6.5-13.7-11.5-21.7-15.7
			c-5-2.6-9.8-5.6-15.3-7.1c-0.8-0.2-1.5-0.3-2.4-0.5c0,6.4,0,12.6,0,18.9c0,3.4,0.3,6.8,0.3,10.2c0.1,6.6,0.4,13.2,0.3,19.8
			c-0.2,10-0.7,20-1.2,30c-0.5,9.6-0.8,19.3-1.8,28.9c-0.9,8.6-5.5,12.6-14.6,13.2c-6.6,0.4-13.1-1.2-19.4-3.1
			c-2.6-0.8-4.6-2.3-5.3-5.2c-0.9-4.2,2.1-7.8,6.8-7.9c3.4-0.1,6.8,0.3,10.2,0.4c2.3,0.1,4.7,0,7.3,0c0.3-2.2,0.9-4.3,0.9-6.5
			c0.4-9.9,0.5-19.8,0.9-29.7c0.1-3.3,0.7-6.6,0.8-9.9c0.3-11.1,0.5-22.1,0.9-33.2c0.4-10-0.2-20-1-30c-0.2-2.2-0.9-3.4-2.9-4.3
			c-5.6-2.4-11.2-4.9-16.8-7.3c-15.3-6.5-28.2-16.1-37.8-29.8c-1.9-2.7-3.1-5.8-4.5-8.7c-1.3-2.7,0.8-4.3,2.3-6.5
			c1,0.4,2,0.7,2.8,1.3c2.9,2.3,5.8,4.5,8.4,7c7.2,6.9,14.5,13.6,24.3,17.2c7,2.6,13.7,6.3,20.6,9.3c9.7,4.2,19.6,8,29.3,12.1
			c5.6,2.4,11.2,4.9,16.5,8.1c5.7,3.4,11,7.7,16.4,11.6c1.2,0.9,2.4,1.8,3.9,2.9c4.4-5.1,6.1-10.8,5.6-17
			c-0.8-9.1-3.4-17.8-7.8-25.8c-1.2-2.3-2.2-4.7-2.9-7.2c-1.3-4.4,1.2-7.2,5.8-6.4c3.6,0.6,7.2,1.4,10.7,2.2
			c3.4,0.8,6.9,1.6,10.3,2.4c0.3,0.1,0.7,0.1,1,0.2c2.6,0.8,4.6,3.2,4.4,5.3c-0.3,3.1-2.3,5.4-5.4,5.6c-2,0.1-4-0.2-6-0.3
			C518.2,182.9,517.1,182.7,515.5,182.4z"/>
		<path d="M338.5,178.5c-0.1,0.3-0.5,0.9-0.7,1.5c-2.3,7.5-6.2,14.2-9.8,21.1c-6.4,12.3-15.3,22.6-25.9,31.4
			c-2.5,2.1-5.4,2.9-8.4,3.3c-2.7,0.3-4.6-0.8-5.3-2.5c-0.9-2.3,0-4.2,1.6-5.7c1.2-1.2,2.5-2.2,3.8-3.2c6.7-5.2,12.7-11.3,17.6-18.3
			c3.6-5.2,6.5-10.9,9.7-16.4c1.5-2.6,3.1-5.3,4.5-8c1.4-2.6,2.7-5.2,4.1-7.8c1.8-3.5,3.8-6.8,6.7-9.5c1.3-1.2,2.6-1.6,4.5-1.5
			c3.9,0.4,7.3,1.5,10.1,4.4c6.3,6.6,12.6,13.4,19.2,19.8c10.7,10.5,22.4,19.8,35.6,27c3.1,1.7,6.5,2.7,9.7,4.2
			c1.4,0.6,2.8,1.3,3.9,2.3c1.9,1.7,3.2,3.9,2.2,6.6c-0.9,2.5-3,4.2-5.5,4.4c-2.7,0.2-5.6-0.1-8.3-0.7c-13.5-3.2-24-11.7-34.5-20
			c-9.1-7.1-17.1-15.5-25-23.9C345.1,184,341.7,181.4,338.5,178.5z"/>
		<path d="M526.2,146c-4.6-0.1-8.8,0-13.1-1.4c-12.7-4.1-22.6-11.8-31.3-21.6c-5.5-6.2-11.2-12.2-17.2-17.8
			c-5.7-5.3-12.6-9.1-19.5-12.7c-6.7-3.5-13.7-5.4-21.2-6.1c-4.4-0.4-8.9-1-13.3-1.5c-0.8-0.1-1.6-0.2-2.4-0.5
			c-2.1-0.6-3.5-2-3.8-4.2c-0.3-2.4,0.8-4.2,2.8-5.3c3-1.7,6.3-2.8,9.8-2.5c8.5,0.7,16.8,2,25,4.3c9,2.5,16.2,7.9,23.4,13.4
			c5.5,4.2,10.7,8.9,15.8,13.6c2.1,2,3.7,4.6,5.7,6.7c2.3,2.4,4.7,4.6,7.2,6.7c7.1,6,14.3,11.9,21.6,17.7c2.5,2,5.2,3.6,7.8,5.5
			C525.7,141.8,526.1,142.7,526.2,146z"/>
		<path d="M330.7,79c6.9-3,13.3-6.5,20.1-8.7c12.2-4,24.3-8.3,36.9-10.7c12-2.3,24.1-2.6,36.2-2.5c0.8,0,1.6,0.2,2.4,0.5
			c2.5,1,4.2,3.3,4.1,5.6c-0.1,2.1-1.8,4.3-4.3,5.1c-1.1,0.3-2.3,0.5-3.5,0.5c-2.5,0.1-5,0.2-7.4,0c-8.2-0.4-16.1,1.7-24.2,2.6
			c-12,1.3-23.4,5.3-34.8,9.1c-7.7,2.6-15.3,5.6-21.6,11.1c-2,1.7-3.9,3.5-5.6,5.3c-2.8,3-6.4,3.9-9.9,2.3c-3-1.4-4.7-4.8-4.2-8.6
			c0.5-4,1.1-7.9,1.7-11.9c0.1-0.5,0.2-0.9,0.3-1.4c1.1-3.3,3.8-5.4,6.7-5.3c2.9,0.1,5.2,1.9,6.3,5.2
			C330.3,77.9,330.5,78.5,330.7,79z"/>
		<path d="M248.5,191.2c0.2-15.9,3-31.1,12.3-44.5c2.1-3.1,4-6.4,8.1-7.4c3.5-0.9,7.9,2.5,7.6,6.2c-0.2,2.3-0.9,4.3-2.2,6.2
			c-4.6,6.9-8.7,14.1-9.9,22.4c-2,13.3-3.2,26.6-2.4,40.1c0.2,3.8,0.6,7.5,0.8,11.3c0.1,1.7-0.1,3.4-2.1,3.9
			c-2.7,0.8-5.4,0.1-6.3-1.8c-0.7-1.3-1.1-2.8-1.6-4.3c-2.6-8.1-3.3-16.6-3.9-25C248.7,195.9,248.6,193.6,248.5,191.2z"/>
		<path d="M362.9,226.8c2.1,0.6,4.3,1.1,6.3,1.9c7.7,2.9,15.4,5.8,23.1,8.7c2.9,1.1,5.6,2.4,8.5,3.5c4.3,1.6,8.6,3,12.9,4.5
			c1,0.3,2.1,0.6,3,1.1c2.5,1.3,3.8,3.5,3.4,6c-0.4,2.7-2.1,4.1-4.6,4.8c-4.2,1.2-8.5,1.2-12.5-0.4c-12.3-5-24.6-10.1-36.8-15.3
			c-3.4-1.4-6.3-3.7-8.4-6.8c-0.5-0.8-1.1-1.6-1.3-2.5c-0.7-2.5,0.5-4.5,3.1-4.9c1-0.2,2.1-0.1,3.2-0.2
			C362.8,227,362.8,226.9,362.9,226.8z"/>
		<path d="M263.3,122c2.3-5.5,6.1-8.4,10.5-10.5c3-1.4,6.1-2.4,9.3-3.2c5-1.3,10-2.5,15.1-3.3c2.4-0.4,4.9-0.1,7.3,0.3
			c2.4,0.4,4.8,3.6,4.8,5.5c-0.1,2.3-2.6,5.1-5.4,5.9c-5.6,1.6-11.3,3.2-16.9,4.8c-5.1,1.4-10.3,2.3-15.6,1.9
			C269.4,123.1,266.6,122.5,263.3,122z"/>
		<path d="M473.2,238.6c4.2-0.3,7.2,1.9,10.1,4.3c0.9,0.8,1.7,2,2.1,3.2c0.7,2.3,0.7,4.6-1.3,6.5c-2.2,2.1-4.8,2.2-7.2,1
			c-3.4-1.8-6.7-3.8-9.7-6.2c-3.2-2.5-2.3-6.6,1.5-8.1C470.2,238.9,471.7,238.9,473.2,238.6z"/>
		<path d="M393.6,354.1c3.5-0.1,5.6,0.8,6.7,3.2c1.1,2.2,0.6,4.4-0.9,6.2c-0.9,1-2,2-3.2,2.6c-2.4,1.2-5,2.1-7.5,3.1
			c-0.4,0.2-0.9,0.2-1.4,0.3c-2.9,0.5-5.4-0.4-6.5-2.4c-1-1.9-0.7-4.8,1.2-6.5C385.5,357.4,389.7,355.2,393.6,354.1z"/>
		<path d="M469.6,273.2c-0.2-2.4,0.5-4.7,2.4-6.5c3-2.9,6.9-2,8.5,1.9c1.8,4.6-0.5,9.4-5.2,10.5c-3.4,0.8-5.5-0.8-5.7-4.3
			C469.6,274.3,469.6,273.9,469.6,273.2z"/>
		<path d="M389.6,267c4.6,0.1,7.3,5,5.2,9.2c-1.5,2.9-6.4,5-9,3.9c-2.5-1.1-3.4-4.7-2.1-8.4C384.7,268.9,387.2,266.9,389.6,267z"/>
	</g>
	<path class="st1" style="fill:url(#Poka_Dot_2)" d="M249.7,129.1c1.7-3.4,4.5-6.1,7.7-8.3c7.8-5.5,17.2-7.7,26.5-8.5c3.6-0.3,7.4,0.1,10.8,1
		c2.4-2.3,4.9-4.5,7.4-6.6c-2-6.9-1.4-18.4-0.8-23.6c0.5-4.4,2.3-8.9,5.8-11.7c3.4-2.8,8.8-3.5,12.4-0.9c4,2.9,4.6,8.6,4.9,13.6
		c0.1,2.3,0.2,4.7,0.3,7c20.7-11.8,44-20,66.7-27.4c30.6-10,41.4,9.5,63.9,26c25.7,18.9,50.7,38.9,74.6,60
		c6.1,5.3,12.2,15.2,5.9,20.3c-4.5,3.6-11.4,0.7-16.8,2.6c-9.6,3.3-8.2,17.2-4.8,26.8c3.3,9.6,5.1,23.3-4.3,27
		c-27.7-13.3-55.4-26.5-83-39.8c10.9,4.7,9,23-1.4,28.7c-10.4,5.7-23.8,1.6-33.3-5.6c-10.2-7.8-17.6-18.7-26.9-27.5
		c-9.3-8.8-22.3-15.7-34.7-12.5c2.5,23.4-27.4,51.3-42.2,63.7c-21.2,17.7,34.7,87.1,45.8,89.4c21,4.2,48.9,18.4,131.2,19.2
		c-7.4,34.3-47,63.5-81.9,61.2s-72.1-11.7-91.3-41c-19.2-29.3-22-78-27.5-112.6c-5.2-33-7.6-68,5.1-98.9c0.1-0.2,0.2-0.5,0.3-0.7
		c-2.9,0-5.8-0.4-8.6-1.1c-5-1.2-10.2-3.8-12.3-8.5C247.6,136.6,248,132.5,249.7,129.1z"/>
</g>
</svg>
