<?xml version="1.0" encoding="utf-8"?>
<!-- Generator: Adobe Illustrator 21.1.0, SVG Export Plug-In . SVG Version: 6.00 Build 0)  -->
<svg version="1.1" id="Layer_1" xmlns="http://www.w3.org/2000/svg" xmlns:xlink="http://www.w3.org/1999/xlink" x="0px" y="0px"
	 width="595.3px" height="595.3px" viewBox="0 0 595.3 595.3" style="enable-background:new 0 0 595.3 595.3;" xml:space="preserve"
	>
<style type="text/css">
	.st0{fill:none;}
	.st1{fill:url(#SVGID_1_);}
</style>
<pattern  width="34" height="34" patternUnits="userSpaceOnUse" id="Poka_Dot_3" viewBox="0 -34 34 34" style="overflow:visible;">
	<g>
		<rect y="-34" class="st0" width="34" height="34"/>
		<circle cx="17" cy="-17" r="8.5"/>
	</g>
</pattern>
<g>
	<path d="M469.3,361c-0.6,0.9-1,1.2-1.1,1.6c-3.7,14.6-11,27.7-17.5,41.1c-3.2,6.5-6.7,12.8-9.5,19.5c-2.9,6.8-14.7,9.6-19.5,3.7
		c-2.6-3.3-5.8-6-7.4-10.1c-3.3-8.5-6.9-16.8-10-25.4c-1.7-4.6-2.5-9.5-3.7-14.2c-0.3-1.3-0.8-2.7-1.2-4.2c-1.2-0.1-2.4-0.4-3.5-0.2
		c-14.4,1.6-28.8,3.3-43.2,4.7c-10,1-20,1.7-30.1,1.1c-4.4-0.3-8.9,0.3-13.3,0.5c-21.7,0.9-43.5,0.2-65.2,0.5
		c-11.2,0.2-22.4,0.7-33.6,0.9c-16.3,0.3-32.7,0.9-49-0.7c-6.8-0.7-13.3-2.5-19.5-5.2c-1.5-0.7-2.9-1.5-4.5-2
		c-7-2.3-11.8-7.3-16.3-12.8c-1.5-1.8-2.9-3.7-4.1-5.6c-1.3-1.9-2.6-3.9-3.5-6c-3.7-8.7-5.7-17.7-6-27.2c-0.2-5.8-1-11.6-1.3-17.5
		c-0.4-8,0.1-15.8,2.4-23.6c2.1-6.9,2.8-14.2,5.9-20.9c2.9-6.1,5.5-12.4,8.7-18.3c5-8.9,12.6-15.6,20.6-21.8c4.2-3.3,8.6-6.3,13-9.5
		c0.4-0.3,0.7-0.7,1.1-0.9c5.7-3,11.3-6.5,17.5-8.5c24.7-7.9,49.9-14.2,75.4-18.6c14.7-2.5,29.6-4.4,44.3-6.6c10-1.5,20-1.6,30-1.7
		c12.1-0.1,24.3-0.9,36.4-1.7c18-1.1,36-0.1,53.9,1.5c6.5,0.6,13,1.4,19.5,1.9c8.7,0.7,17.1,2.3,25.4,5c3.7,1.2,7.7,1.9,11.6,2.4
		c2.9,0.4,5.5,1.1,7.9,2.5c8.7,5,17.4,9.9,26.2,14.9c10.3,5.9,17.2,14.8,22.6,25.1c2.8,5.4,5.6,10.8,8.3,16.2
		c3,6.1,5.8,12.2,6.6,19.1c0.1,0.7,0.2,1.4,0.4,2.1c2,7.1,2,14.3,0.5,21.5c-0.3,1.6-0.8,3.2-0.7,4.8c0.3,8.4-2.3,16.1-6.1,23.4
		c-5.5,10.4-12,19.9-21.1,27.6c-7.4,6.3-15.6,11.1-24.3,15c-2.3,1-4.8,1.8-7.3,2.4C479.7,358.5,474.3,359.8,469.3,361z M427.8,407.7
		c2.9-4.1,3.8-7.7,5.3-11.2c3.2-7.5,5.8-15.4,9.8-22.4c3.4-6,5.9-12.1,8.1-18.5c0.7-2,1.6-3.9,2.6-5.7c0.7-1.1,1.7-2.3,2.8-2.9
		c7.7-4,15.2-8.2,24-9.2c1.6-0.2,3.1-0.9,4.6-1.5c8.1-3.3,15.3-8.1,21.5-14.2c5.4-5.2,10-11.2,13.2-18c3.3-6.9,6.6-13.9,6.1-22
		c-0.1-0.9,0.4-1.8,0.5-2.7c0.4-4.6,0.7-9.2-0.4-13.9c-2.6-11.7-7.4-22.5-12.4-33.3c-3.2-7-9-11.8-13.6-17.6
		c-0.4-0.5-1.2-0.8-1.7-1.1c-4.9-3.2-10-5.8-16-6.7c-2.8-0.4-5.4-1.3-8.1-2.1c-14-4-28.2-6.6-42.6-7.8c-5.3-0.4-10.7-1-16-1.7
		c-10-1.2-19.9-2.6-29.9-3.7c-9.8-1.1-19.6-0.6-29.4-0.9c-21.8-0.8-43.4,1.1-65.1,2.7c-5.6,0.4-11.1,1.3-16.6,2.2
		c-12.2,2.2-24.3,4.6-36.5,6.8c-6,1.1-12,1.9-17.9,3.1c-9.2,1.8-18.1,4.6-26.8,7.8c-10.1,3.7-20,7.7-28.6,14.3
		c-6.6,5.1-13.2,10.4-19.4,16.1c-5,4.6-9,10.1-10.3,17.1c-0.8,3.9-1.4,7.8-2.9,11.5c-2.9,7.3-2.8,15.1-4.3,22.5
		c-0.5,2.5-0.5,5.1-0.3,7.7c0.5,8.1,1.1,16.3,2,24.4c0.9,7.8,3.2,15.1,10,20.1c1.1,0.8,2.1,1.8,3,2.9c2.3,2.8,5.4,4.5,8.6,5.9
		c5.4,2.3,11,3.6,16.7,4.8c11.7,2.6,23.5,3.4,35.4,4.2c9.6,0.6,19.1-1.5,28.6-0.6c0.5,0,0.9-0.2,1.4-0.2c8.4-0.5,16.8-1.4,25,0.9
		c1.3,0.4,2.8,0.2,4.2,0.2c23.6,0,47.2-1.2,70.7-2.4c18-0.9,35.9-2.4,53.9-2.3c4.7,0,9.3-0.3,14-0.6c5.5-0.3,6-0.1,8.3,5.2
		c3.5,8.1,7,16.3,10.5,24.4C422.5,395.2,424.9,400.9,427.8,407.7z"/>
	<path d="M257.7,250.2c6.4-0.7,13.6-1.5,20.8-2.3c4.2-0.4,8.3-0.9,12.5-1.2c14.9-1.2,29.7-2.5,44.6-3.5c12.8-0.9,25.6-1.5,38.4-2.3
		c6.3-0.4,12.6-0.9,18.9-1.3c2.3-0.1,4.7-0.1,7,0c1.1,0.1,2.3,0.4,3.4,0.8c2.7,1.1,5.1,2.7,5.3,5.9c0.2,2.9-1.7,4.7-4,6.2
		c-1.4,0.9-2.9,1.6-4.4,2.1c-7.6,2.1-15.4,4-23.3,4.5c-14,0.9-27.9,1.9-41.9,3.1c-9.1,0.7-18.1,1.7-27.1,2.8
		c-3.5,0.4-6.9,1.2-10.2,2.2c-11.5,3.2-23,5.8-34.9,7.1c-5.3,0.6-10.5,2.1-15.8,3c-5.7,1-11.6,1.6-17.3,2.6
		c-5.7,1-11.4,2.5-17.1,3.6c-3.2,0.6-6.5,0.9-9.7,0.8c-3.3,0-6.3-1.5-8.9-3.6c-5.8-4.6-6.7-12.1-2.2-18c3.5-4.5,8.3-6.6,13.9-7.2
		c7.6-0.8,15.3-1.6,22.9-2.5c5.1-0.6,10.2-1,15.2-2.1C248.1,249.9,252.5,249.4,257.7,250.2z"/>
	<path d="M244.8,325.1c-9.8,0-19.6,0-29.4-0.1c-3.7,0-7.5,0-11.2-0.4c-2.2-0.2-4.6-1-6.6-2.1c-2.7-1.5-3.2-4.7-1.5-7.3
		c1.7-2.7,4.4-4.3,7.3-5.1c3.6-1.1,7.2-2,10.9-2.6c13.1-2.1,26.4-3.6,39.7-3.2c9.1,0.3,18.1-1,27.2-2.4c6.2-0.9,12.5-1.2,18.8-1.8
		c7.7-0.6,15.3-1.2,23-1.9c11.4-1,22.7-2.6,34.1-2.6c6.7,0,13.5-1,20.2-1.5c3.5-0.3,7.1,0,10.2,1.9c1.8,1,3.5,2.3,4.9,3.9
		c3.1,3.6,3.2,8.4,0.4,12.3c-1.7,2.3-3.9,4.1-6.6,5.1c-2.2,0.8-4.5,1.4-6.8,1.6c-8.4,0.6-16.8,0.9-25.1,1.5
		c-8.1,0.6-16.3,1.3-24.4,2.1c-10.4,1.1-20.8,2.5-31.4,2.4c-3.7,0-7.4,0.7-11.1,0.9c-5.4,0.3-10.7,0.5-16.1,0.5
		c-8.9-0.1-17.7-0.4-26.6-0.7C244.8,325.5,244.8,325.3,244.8,325.1z"/>
	<path d="M430.9,290.7c0.8-4.4,1.7-9.7,2.7-15c0.9-5,1.7-10.1,2.6-15.1c0.3-1.6,0.7-3.2,1-4.8c1.4-7.8,2.9-15.6,4.2-23.4
		c0.6-3.3,1.7-6.3,4-8.8c3-3.3,7.3-2.9,9.2,1.1c1,2,1.6,4.4,1.7,6.7c0.2,3.5,0.2,7.1-0.3,10.5c-2,13.9-2.7,27.9-6.4,41.5
		c-1.2,4.3-2.1,8.6-3.6,12.8c-0.7,2.1-2.2,4.2-3.8,5.8c-2.9,2.9-6.6,2.4-9-1C431.3,298.2,431.3,294.9,430.9,290.7z"/>
	<path d="M442.7,322.8c0.2,9.6-6.7,12.3-12.7,12.4c-6,0.1-11.7-5.6-11.8-11.5c-0.1-7.2,5.5-12.5,13-12.4
		C437.7,311.5,442.7,316.5,442.7,322.8z"/>
</g>
<pattern  id="SVGID_1_" xlink:href="#Poka_Dot_3" patternTransform="matrix(0.2953 0 0 0.2953 -4618.4526 -4840.4526)">
</pattern>
<path class="st1" d="M348.9,159.1c-50.6-1.2-101.1,7.7-149.9,21c-39,10.6-78.8,25.1-106.7,54.3s-40,77.1-17.9,110.9
	c16.3,25,46.6,36.8,75.7,43.7c55.8,13.2,114.7,13.6,170.7,1.1c12.6-2.8,25.3-6.3,38.1-5.9c12.9,0.4,26.4,5.4,33.5,16.2
	c3.1,4.6,4.8,10.1,8.6,14.2c3.8,4.1,10.8,6,14.7,2.1c4.7-4.8,6.8-22.7,11.4-29.9c6.5-10.1,15.1-18.6,23.4-27.1
	c16.6-16.6,35.9-32.7,44.8-55.1c14-35.5-0.3-104-36.7-123.3C426.5,164.3,384.7,160,348.9,159.1z"/>
</svg>
