<?xml version="1.0" encoding="UTF-8" standalone="no"?>
<svg
   xmlns:dc="http://purl.org/dc/elements/1.1/"
   xmlns:cc="http://creativecommons.org/ns#"
   xmlns:rdf="http://www.w3.org/1999/02/22-rdf-syntax-ns#"
   xmlns:svg="http://www.w3.org/2000/svg"
   xmlns="http://www.w3.org/2000/svg"
   xmlns:xlink="http://www.w3.org/1999/xlink"
   xml:space="preserve"
   viewBox="0 0 482.59925 271.12333"
   height="271.12332"
   width="482.59924"
   y="0px"
   x="0px"
   id="Layer_1"
   version="1.1"><metadata
   id="metadata31"><rdf:RDF><cc:Work
       rdf:about=""><dc:format>image/svg+xml</dc:format><dc:type
         rdf:resource="http://purl.org/dc/dcmitype/StillImage" /><dc:title></dc:title></cc:Work></rdf:RDF></metadata><defs
   id="defs29" />
<style
   id="style2"
   type="text/css">
	.st0{fill:none;}
	.st1{fill:url(#SVGID_1_);}
</style>
<pattern
   viewBox="0 -34 34 34"
   id="Poka_Dot_3"
   patternUnits="userSpaceOnUse"
   height="34"
   width="34">
	<g
   id="g8">
		<rect
   id="rect4"
   height="34"
   width="34"
   class="st0"
   y="-34" />
		<circle
   id="circle6"
   r="8.5"
   cy="-17"
   cx="17" />
	</g>
</pattern>
<g
   transform="translate(-62.969962,-158.99184)"
   id="g21">
	<path
   id="path11"
   d="m 469.3,361 c -0.6,0.9 -1,1.2 -1.1,1.6 -3.7,14.6 -11,27.7 -17.5,41.1 -3.2,6.5 -6.7,12.8 -9.5,19.5 -2.9,6.8 -14.7,9.6 -19.5,3.7 -2.6,-3.3 -5.8,-6 -7.4,-10.1 -3.3,-8.5 -6.9,-16.8 -10,-25.4 -1.7,-4.6 -2.5,-9.5 -3.7,-14.2 -0.3,-1.3 -0.8,-2.7 -1.2,-4.2 -1.2,-0.1 -2.4,-0.4 -3.5,-0.2 -14.4,1.6 -28.8,3.3 -43.2,4.7 -10,1 -20,1.7 -30.1,1.1 -4.4,-0.3 -8.9,0.3 -13.3,0.5 -21.7,0.9 -43.5,0.2 -65.2,0.5 -11.2,0.2 -22.4,0.7 -33.6,0.9 -16.3,0.3 -32.7,0.9 -49,-0.7 -6.8,-0.7 -13.3,-2.5 -19.5,-5.2 -1.5,-0.7 -2.9,-1.5 -4.5,-2 -7,-2.3 -11.8,-7.3 -16.3,-12.8 -1.5,-1.8 -2.9,-3.7 -4.1,-5.6 -1.3,-1.9 -2.6,-3.9 -3.5,-6 -3.7,-8.7 -5.7,-17.7 -6,-27.2 -0.2,-5.8 -1,-11.6 -1.3,-17.5 -0.4,-8 0.1,-15.8 2.4,-23.6 2.1,-6.9 2.8,-14.2 5.9,-20.9 2.9,-6.1 5.5,-12.4 8.7,-18.3 5,-8.9 12.6,-15.6 20.6,-21.8 4.2,-3.3 8.6,-6.3 13,-9.5 0.4,-0.3 0.7,-0.7 1.1,-0.9 5.7,-3 11.3,-6.5 17.5,-8.5 24.7,-7.9 49.9,-14.2 75.4,-18.6 14.7,-2.5 29.6,-4.4 44.3,-6.6 10,-1.5 20,-1.6 30,-1.7 12.1,-0.1 24.3,-0.9 36.4,-1.7 18,-1.1 36,-0.1 53.9,1.5 6.5,0.6 13,1.4 19.5,1.9 8.7,0.7 17.1,2.3 25.4,5 3.7,1.2 7.7,1.9 11.6,2.4 2.9,0.4 5.5,1.1 7.9,2.5 8.7,5 17.4,9.9 26.2,14.9 10.3,5.9 17.2,14.8 22.6,25.1 2.8,5.4 5.6,10.8 8.3,16.2 3,6.1 5.8,12.2 6.6,19.1 0.1,0.7 0.2,1.4 0.4,2.1 2,7.1 2,14.3 0.5,21.5 -0.3,1.6 -0.8,3.2 -0.7,4.8 0.3,8.4 -2.3,16.1 -6.1,23.4 -5.5,10.4 -12,19.9 -21.1,27.6 -7.4,6.3 -15.6,11.1 -24.3,15 -2.3,1 -4.8,1.8 -7.3,2.4 -5.3,1.7 -10.7,3 -15.7,4.2 z m -41.5,46.7 c 2.9,-4.1 3.8,-7.7 5.3,-11.2 3.2,-7.5 5.8,-15.4 9.8,-22.4 3.4,-6 5.9,-12.1 8.1,-18.5 0.7,-2 1.6,-3.9 2.6,-5.7 0.7,-1.1 1.7,-2.3 2.8,-2.9 7.7,-4 15.2,-8.2 24,-9.2 1.6,-0.2 3.1,-0.9 4.6,-1.5 8.1,-3.3 15.3,-8.1 21.5,-14.2 5.4,-5.2 10,-11.2 13.2,-18 3.3,-6.9 6.6,-13.9 6.1,-22 -0.1,-0.9 0.4,-1.8 0.5,-2.7 0.4,-4.6 0.7,-9.2 -0.4,-13.9 -2.6,-11.7 -7.4,-22.5 -12.4,-33.3 -3.2,-7 -9,-11.8 -13.6,-17.6 -0.4,-0.5 -1.2,-0.8 -1.7,-1.1 -4.9,-3.2 -10,-5.8 -16,-6.7 -2.8,-0.4 -5.4,-1.3 -8.1,-2.1 -14,-4 -28.2,-6.6 -42.6,-7.8 -5.3,-0.4 -10.7,-1 -16,-1.7 -10,-1.2 -19.9,-2.6 -29.9,-3.7 -9.8,-1.1 -19.6,-0.6 -29.4,-0.9 -21.8,-0.8 -43.4,1.1 -65.1,2.7 -5.6,0.4 -11.1,1.3 -16.6,2.2 -12.2,2.2 -24.3,4.6 -36.5,6.8 -6,1.1 -12,1.9 -17.9,3.1 -9.2,1.8 -18.1,4.6 -26.8,7.8 -10.1,3.7 -20,7.7 -28.6,14.3 -6.6,5.1 -13.2,10.4 -19.4,16.1 -5,4.6 -9,10.1 -10.3,17.1 -0.8,3.9 -1.4,7.8 -2.9,11.5 -2.9,7.3 -2.8,15.1 -4.3,22.5 -0.5,2.5 -0.5,5.1 -0.3,7.7 0.5,8.1 1.1,16.3 2,24.4 0.9,7.8 3.2,15.1 10,20.1 1.1,0.8 2.1,1.8 3,2.9 2.3,2.8 5.4,4.5 8.6,5.9 5.4,2.3 11,3.6 16.7,4.8 11.7,2.6 23.5,3.4 35.4,4.2 9.6,0.6 19.1,-1.5 28.6,-0.6 0.5,0 0.9,-0.2 1.4,-0.2 8.4,-0.5 16.8,-1.4 25,0.9 1.3,0.4 2.8,0.2 4.2,0.2 23.6,0 47.2,-1.2 70.7,-2.4 18,-0.9 35.9,-2.4 53.9,-2.3 4.7,0 9.3,-0.3 14,-0.6 5.5,-0.3 6,-0.1 8.3,5.2 3.5,8.1 7,16.3 10.5,24.4 2.7,5.9 5.1,11.6 8,18.4 z" />
	<path
   id="path13"
   d="m 257.7,250.2 c 6.4,-0.7 13.6,-1.5 20.8,-2.3 4.2,-0.4 8.3,-0.9 12.5,-1.2 14.9,-1.2 29.7,-2.5 44.6,-3.5 12.8,-0.9 25.6,-1.5 38.4,-2.3 6.3,-0.4 12.6,-0.9 18.9,-1.3 2.3,-0.1 4.7,-0.1 7,0 1.1,0.1 2.3,0.4 3.4,0.8 2.7,1.1 5.1,2.7 5.3,5.9 0.2,2.9 -1.7,4.7 -4,6.2 -1.4,0.9 -2.9,1.6 -4.4,2.1 -7.6,2.1 -15.4,4 -23.3,4.5 -14,0.9 -27.9,1.9 -41.9,3.1 -9.1,0.7 -18.1,1.7 -27.1,2.8 -3.5,0.4 -6.9,1.2 -10.2,2.2 -11.5,3.2 -23,5.8 -34.9,7.1 -5.3,0.6 -10.5,2.1 -15.8,3 -5.7,1 -11.6,1.6 -17.3,2.6 -5.7,1 -11.4,2.5 -17.1,3.6 -3.2,0.6 -6.5,0.9 -9.7,0.8 -3.3,0 -6.3,-1.5 -8.9,-3.6 -5.8,-4.6 -6.7,-12.1 -2.2,-18 3.5,-4.5 8.3,-6.6 13.9,-7.2 7.6,-0.8 15.3,-1.6 22.9,-2.5 5.1,-0.6 10.2,-1 15.2,-2.1 4.3,-1 8.7,-1.5 13.9,-0.7 z" />
	<path
   id="path15"
   d="m 244.8,325.1 c -9.8,0 -19.6,0 -29.4,-0.1 -3.7,0 -7.5,0 -11.2,-0.4 -2.2,-0.2 -4.6,-1 -6.6,-2.1 -2.7,-1.5 -3.2,-4.7 -1.5,-7.3 1.7,-2.7 4.4,-4.3 7.3,-5.1 3.6,-1.1 7.2,-2 10.9,-2.6 13.1,-2.1 26.4,-3.6 39.7,-3.2 9.1,0.3 18.1,-1 27.2,-2.4 6.2,-0.9 12.5,-1.2 18.8,-1.8 7.7,-0.6 15.3,-1.2 23,-1.9 11.4,-1 22.7,-2.6 34.1,-2.6 6.7,0 13.5,-1 20.2,-1.5 3.5,-0.3 7.1,0 10.2,1.9 1.8,1 3.5,2.3 4.9,3.9 3.1,3.6 3.2,8.4 0.4,12.3 -1.7,2.3 -3.9,4.1 -6.6,5.1 -2.2,0.8 -4.5,1.4 -6.8,1.6 -8.4,0.6 -16.8,0.9 -25.1,1.5 -8.1,0.6 -16.3,1.3 -24.4,2.1 -10.4,1.1 -20.8,2.5 -31.4,2.4 -3.7,0 -7.4,0.7 -11.1,0.9 -5.4,0.3 -10.7,0.5 -16.1,0.5 -8.9,-0.1 -17.7,-0.4 -26.6,-0.7 0.1,-0.1 0.1,-0.3 0.1,-0.5 z" />
	<path
   id="path17"
   d="m 430.9,290.7 c 0.8,-4.4 1.7,-9.7 2.7,-15 0.9,-5 1.7,-10.1 2.6,-15.1 0.3,-1.6 0.7,-3.2 1,-4.8 1.4,-7.8 2.9,-15.6 4.2,-23.4 0.6,-3.3 1.7,-6.3 4,-8.8 3,-3.3 7.3,-2.9 9.2,1.1 1,2 1.6,4.4 1.7,6.7 0.2,3.5 0.2,7.1 -0.3,10.5 -2,13.9 -2.7,27.9 -6.4,41.5 -1.2,4.3 -2.1,8.6 -3.6,12.8 -0.7,2.1 -2.2,4.2 -3.8,5.8 -2.9,2.9 -6.6,2.4 -9,-1 -1.9,-2.8 -1.9,-6.1 -2.3,-10.3 z" />
	<path
   id="path19"
   d="m 442.7,322.8 c 0.2,9.6 -6.7,12.3 -12.7,12.4 -6,0.1 -11.7,-5.6 -11.8,-11.5 -0.1,-7.2 5.5,-12.5 13,-12.4 6.5,0.2 11.5,5.2 11.5,11.5 z" />
</g>
<pattern
   patternTransform="matrix(0.2953,0,0,0.2953,-4681.4226,-4999.4444)"
   xlink:href="#Poka_Dot_3"
   id="SVGID_1_">
</pattern>
<path
   style="fill:url(#SVGID_1_)"
   id="path24"
   d="m 285.93004,0.10815678 c -50.6,-1.19999998 -101.1,7.70000002 -149.9,21.00000022 -39.000002,10.6 -78.800002,25.1 -106.700002,54.3 -27.8999997,29.200003 -40,77.100003 -17.9,110.900003 16.3,25 46.6,36.8 75.7,43.7 55.800002,13.2 114.700002,13.6 170.700002,1.1 12.6,-2.8 25.3,-6.3 38.1,-5.9 12.9,0.4 26.4,5.4 33.5,16.2 3.1,4.6 4.8,10.1 8.6,14.2 3.8,4.1 10.8,6 14.7,2.1 4.7,-4.8 6.8,-22.7 11.4,-29.9 6.5,-10.1 15.1,-18.6 23.4,-27.1 16.6,-16.6 35.9,-32.7 44.8,-55.1 14,-35.5 -0.3,-104.000003 -36.7,-123.300003 -32.1,-17.0000002 -73.9,-21.3000002 -109.7,-22.20000022 z"
   class="st1" />
</svg>